# Exported from Godot Engine
o grass_quad_x2
v -0.000008 0.999995 -0.500000
vt 0.999893 0.999908
vn 1.000000 0.000015 0.000024
v -0.000008 0.000000 -0.500000
vt 0.999893 0.000107
vn 1.000000 0.000015 0.000024
v -0.000008 0.999995 0.500000
vt 0.000092 0.999908
vn 1.000000 0.000015 0.000024
v -0.000008 0.000000 0.500000
vt 0.000092 0.000107
vn 1.000000 0.000015 0.000024
v -0.500000 0.999995 -0.000008
vt 0.999893 0.999908
vn 0.000000 -0.000031 -1.000000
v -0.500000 0.000000 -0.000008
vt 0.999893 0.000107
vn 0.000000 -0.000031 -1.000000
v 0.500000 0.999995 -0.000008
vt 0.000092 0.999908
vn 0.000000 -0.000031 -1.000000
v 0.500000 0.000000 -0.000008
vt 0.000092 0.000107
vn 0.000000 -0.000031 -1.000000
f 3/3/3 2/2/2 1/1/1
f 4/4/4 2/2/2 3/3/3
f 7/7/7 6/6/6 5/5/5
f 8/8/8 6/6/6 7/7/7
