# Exported from Godot Engine
o grass_quad_x3
v -0.000007 0.999995 -0.500000
vt 0.999893 0.999908
vn 1.000000 0.000015 0.000024
v -0.000007 0.000000 -0.500000
vt 0.999893 0.000107
vn 1.000000 0.000015 0.000024
v -0.000007 0.999995 0.500000
vt 0.000092 0.999908
vn 1.000000 0.000015 0.000024
v -0.000007 0.000000 0.500000
vt 0.000092 0.000107
vn 1.000000 0.000015 0.000024
v -0.433013 0.999995 -0.250011
vt 0.999893 0.999908
vn 0.500062 0.000028 -0.865990
v -0.433013 0.000000 -0.250011
vt 0.999893 0.000107
vn 0.500062 0.000028 -0.865990
v 0.433013 0.999995 0.249996
vt 0.000092 0.999908
vn 0.500062 0.000028 -0.865990
v 0.433013 0.000000 0.249996
vt 0.000092 0.000107
vn 0.500062 0.000028 -0.865990
v -0.433013 0.999995 0.249996
vt 0.999893 0.999908
vn -0.500062 -0.000028 -0.865990
v -0.433013 0.000000 0.249996
vt 0.999893 0.000107
vn -0.500062 -0.000028 -0.865990
v 0.433013 0.999995 -0.250011
vt 0.000092 0.999908
vn -0.500062 -0.000028 -0.865990
v 0.433013 0.000000 -0.250011
vt 0.000092 0.000107
vn -0.500062 -0.000028 -0.865990
f 3/3/3 2/2/2 1/1/1
f 4/4/4 2/2/2 3/3/3
f 7/7/7 6/6/6 5/5/5
f 8/8/8 6/6/6 7/7/7
f 11/11/11 10/10/10 9/9/9
f 12/12/12 10/10/10 11/11/11
