<?xml version="1.0" encoding="UTF-8"?>
<!-- Generator: visioncortex VTracer 0.6.4 -->
<svg version="1.1" xmlns="http://www.w3.org/2000/svg" width="128" height="128">
<path d="M0,0 L2,0 L2,2 L3,2 L3,4 L4,4 L4,6 L5,6 L5,8 L6,8 L6,10 L7,10 L7,12 L8,12 L8,14 L9,14 L9,16 L10,16 L10,18 L11,18 L11,20 L12,20 L12,22 L13,22 L13,24 L14,24 L14,26 L15,26 L15,28 L16,28 L16,30 L17,30 L17,32 L18,32 L18,34 L19,34 L19,36 L20,36 L20,38 L21,38 L21,40 L22,40 L22,42 L23,42 L23,44 L24,44 L24,46 L26,46 L26,45 L27,45 L27,44 L28,44 L28,43 L29,43 L29,42 L30,42 L30,41 L31,41 L31,40 L32,40 L32,39 L33,39 L33,38 L34,38 L34,37 L35,37 L35,36 L36,36 L36,35 L37,35 L37,34 L38,34 L38,33 L39,33 L39,32 L40,32 L40,31 L42,31 L42,32 L43,32 L43,33 L44,33 L44,34 L45,34 L45,35 L46,35 L46,36 L47,36 L47,37 L48,37 L48,38 L49,38 L49,39 L50,39 L50,40 L51,40 L51,41 L52,41 L52,42 L53,42 L53,43 L54,43 L54,44 L55,44 L55,45 L56,45 L56,46 L57,46 L57,47 L58,47 L58,48 L59,48 L59,49 L60,49 L60,50 L61,50 L61,51 L62,51 L62,52 L63,52 L63,53 L64,53 L64,54 L65,54 L65,55 L66,55 L66,56 L67,56 L67,57 L68,57 L68,58 L69,58 L69,59 L70,59 L70,60 L71,60 L71,61 L72,61 L72,62 L73,62 L73,63 L74,63 L74,64 L75,64 L75,65 L76,65 L76,66 L77,66 L77,67 L78,67 L78,68 L79,68 L79,69 L80,69 L80,70 L81,70 L81,102 L-31,102 L-31,54 L-30,54 L-30,53 L-29,53 L-29,51 L-28,51 L-28,49 L-27,49 L-27,47 L-26,47 L-26,46 L-25,46 L-25,44 L-24,44 L-24,42 L-23,42 L-23,40 L-22,40 L-22,39 L-21,39 L-21,37 L-20,37 L-20,35 L-19,35 L-19,33 L-18,33 L-18,32 L-17,32 L-17,30 L-16,30 L-16,28 L-15,28 L-15,26 L-14,26 L-14,25 L-13,25 L-13,23 L-12,23 L-12,21 L-11,21 L-11,19 L-10,19 L-10,18 L-9,18 L-9,16 L-8,16 L-8,14 L-7,14 L-7,12 L-6,12 L-6,11 L-5,11 L-5,9 L-4,9 L-4,7 L-3,7 L-3,5 L-2,5 L-2,4 L-1,4 L-1,2 L0,2 Z " fill="#FC9C9C" opacity="0.99607843" transform="translate(39,18)"/>
<path d="M0,0 L1,0 L1,1 L0,1 Z M1,1 L2,1 L2,2 L1,2 Z M2,2 L3,2 L3,3 L2,3 Z M3,3 L4,3 L4,4 L3,4 Z M4,4 L5,4 L5,5 L4,5 Z M5,5 L6,5 L6,6 L5,6 Z M6,6 L7,6 L7,7 L6,7 Z M7,7 L8,7 L8,8 L7,8 Z M8,8 L9,8 L9,9 L8,9 Z M9,9 L10,9 L10,10 L9,10 Z M10,10 L11,10 L11,11 L10,11 Z M11,11 L12,11 L12,12 L11,12 Z M12,12 L13,12 L13,13 L12,13 Z M13,13 L14,13 L14,14 L13,14 Z M14,14 L15,14 L15,15 L14,15 Z M15,15 L16,15 L16,16 L15,16 Z M16,16 L17,16 L17,17 L16,17 Z M17,17 L18,17 L18,18 L17,18 Z M18,18 L19,18 L19,19 L18,19 Z M19,19 L20,19 L20,20 L19,20 Z M20,20 L21,20 L21,21 L20,21 Z M21,21 L22,21 L22,22 L21,22 Z M22,22 L23,22 L23,23 L22,23 Z M23,23 L24,23 L24,24 L23,24 Z M24,24 L25,24 L25,25 L24,25 Z M25,25 L26,25 L26,26 L25,26 Z M26,26 L27,26 L27,27 L26,27 Z M27,27 L28,27 L28,28 L27,28 Z M28,28 L29,28 L29,29 L28,29 Z M29,29 L30,29 L30,30 L29,30 Z M30,30 L31,30 L31,31 L30,31 Z M31,31 L32,31 L32,32 L31,32 Z M32,32 L33,32 L33,33 L32,33 Z M33,33 L34,33 L34,34 L33,34 Z M34,34 L35,34 L35,35 L34,35 Z M35,35 L36,35 L36,36 L35,36 Z M36,36 L37,36 L37,37 L36,37 Z M37,37 L38,37 L38,38 L37,38 Z M38,38 L39,38 L39,39 L38,39 Z M39,39 L40,39 L40,40 L39,40 Z " fill="#FE9E9E" opacity="0.5019608" transform="translate(80,48)"/>
<path d="M0,0 L1,0 L1,1 L0,1 Z M-1,1 L0,1 L0,2 L-1,2 Z M-2,2 L-1,2 L-1,3 L-2,3 Z M-3,3 L-2,3 L-2,4 L-3,4 Z M-4,4 L-3,4 L-3,5 L-4,5 Z M-5,5 L-4,5 L-4,6 L-5,6 Z M-6,6 L-5,6 L-5,7 L-6,7 Z M-7,7 L-6,7 L-6,8 L-7,8 Z M-8,8 L-7,8 L-7,9 L-8,9 Z M-9,9 L-8,9 L-8,10 L-9,10 Z M-10,10 L-9,10 L-9,11 L-10,11 Z M-11,11 L-10,11 L-10,12 L-11,12 Z M-12,12 L-11,12 L-11,13 L-12,13 Z M-13,13 L-12,13 L-12,14 L-13,14 Z M-14,14 L-13,14 L-13,15 L-14,15 Z M-15,15 L-14,15 L-14,16 L-15,16 Z " fill="#FD9D9D" opacity="0.49803922" transform="translate(79,48)"/>
<path d="M0,0 L1,0 L1,1 L0,1 Z " fill="#FD9C9C" opacity="0.7490196" transform="translate(40,17)"/>
<path d="M0,0 L1,0 L1,1 L0,1 Z " fill="#FB9B9B" opacity="0.43137255" transform="translate(10,67)"/>
<path d="M0,0 L1,0 L1,1 L0,1 Z " fill="#FB9B9B" opacity="0.43137255" transform="translate(14,60)"/>
<path d="M0,0 L1,0 L1,1 L0,1 Z " fill="#FB9B9B" opacity="0.43137255" transform="translate(18,53)"/>
<path d="M0,0 L1,0 L1,1 L0,1 Z " fill="#FB9B9B" opacity="0.43137255" transform="translate(22,46)"/>
<path d="M0,0 L1,0 L1,1 L0,1 Z " fill="#FB9B9B" opacity="0.43137255" transform="translate(26,39)"/>
<path d="M0,0 L1,0 L1,1 L0,1 Z " fill="#FB9B9B" opacity="0.43137255" transform="translate(30,32)"/>
<path d="M0,0 L1,0 L1,1 L0,1 Z " fill="#FB9B9B" opacity="0.43137255" transform="translate(34,25)"/>
<path d="M0,0 L1,0 L1,1 L0,1 Z " fill="#FD9C9C" opacity="0.7137255" transform="translate(8,71)"/>
<path d="M0,0 L1,0 L1,1 L0,1 Z " fill="#FE9D9D" opacity="0.57254905" transform="translate(9,69)"/>
<path d="M0,0 L1,0 L1,1 L0,1 Z " fill="#FC9B9B" opacity="0.84313726" transform="translate(11,66)"/>
<path d="M0,0 L1,0 L1,1 L0,1 Z " fill="#FD9C9C" opacity="0.7137255" transform="translate(12,64)"/>
<path d="M0,0 L1,0 L1,1 L0,1 Z " fill="#FD9C9C" opacity="0.7490196" transform="translate(63,63)"/>
<path d="M0,0 L1,0 L1,1 L0,1 Z " fill="#FE9D9D" opacity="0.57254905" transform="translate(13,62)"/>
<path d="M0,0 L1,0 L1,1 L0,1 Z " fill="#FD9C9C" opacity="0.7490196" transform="translate(62,61)"/>
<path d="M0,0 L1,0 L1,1 L0,1 Z " fill="#FD9C9C" opacity="0.7490196" transform="translate(61,59)"/>
<path d="M0,0 L1,0 L1,1 L0,1 Z " fill="#FC9B9B" opacity="0.84313726" transform="translate(15,59)"/>
<path d="M0,0 L1,0 L1,1 L0,1 Z " fill="#FD9C9C" opacity="0.7490196" transform="translate(60,57)"/>
<path d="M0,0 L1,0 L1,1 L0,1 Z " fill="#FD9C9C" opacity="0.7137255" transform="translate(16,57)"/>
<path d="M0,0 L1,0 L1,1 L0,1 Z " fill="#FD9C9C" opacity="0.7490196" transform="translate(59,55)"/>
<path d="M0,0 L1,0 L1,1 L0,1 Z " fill="#FE9D9D" opacity="0.57254905" transform="translate(17,55)"/>
<path d="M0,0 L1,0 L1,1 L0,1 Z " fill="#FD9C9C" opacity="0.7490196" transform="translate(58,53)"/>
<path d="M0,0 L1,0 L1,1 L0,1 Z " fill="#FC9B9B" opacity="0.84313726" transform="translate(19,52)"/>
<path d="M0,0 L1,0 L1,1 L0,1 Z " fill="#FD9C9C" opacity="0.7490196" transform="translate(57,51)"/>
<path d="M0,0 L1,0 L1,1 L0,1 Z " fill="#FD9C9C" opacity="0.7137255" transform="translate(20,50)"/>
<path d="M0,0 L1,0 L1,1 L0,1 Z " fill="#FD9C9C" opacity="0.7490196" transform="translate(56,49)"/>
<path d="M0,0 L1,0 L1,1 L0,1 Z " fill="#FE9D9D" opacity="0.57254905" transform="translate(21,48)"/>
<path d="M0,0 L1,0 L1,1 L0,1 Z " fill="#FD9C9C" opacity="0.7490196" transform="translate(55,47)"/>
<path d="M0,0 L1,0 L1,1 L0,1 Z " fill="#FD9C9C" opacity="0.7490196" transform="translate(54,45)"/>
<path d="M0,0 L1,0 L1,1 L0,1 Z " fill="#FC9B9B" opacity="0.84313726" transform="translate(23,45)"/>
<path d="M0,0 L1,0 L1,1 L0,1 Z " fill="#FD9C9C" opacity="0.7490196" transform="translate(53,43)"/>
<path d="M0,0 L1,0 L1,1 L0,1 Z " fill="#FD9C9C" opacity="0.7137255" transform="translate(24,43)"/>
<path d="M0,0 L1,0 L1,1 L0,1 Z " fill="#FD9C9C" opacity="0.7490196" transform="translate(52,41)"/>
<path d="M0,0 L1,0 L1,1 L0,1 Z " fill="#FE9D9D" opacity="0.57254905" transform="translate(25,41)"/>
<path d="M0,0 L1,0 L1,1 L0,1 Z " fill="#FD9C9C" opacity="0.7490196" transform="translate(51,39)"/>
<path d="M0,0 L1,0 L1,1 L0,1 Z " fill="#FC9B9B" opacity="0.84313726" transform="translate(27,38)"/>
<path d="M0,0 L1,0 L1,1 L0,1 Z " fill="#FD9C9C" opacity="0.7490196" transform="translate(50,37)"/>
<path d="M0,0 L1,0 L1,1 L0,1 Z " fill="#FD9C9C" opacity="0.7137255" transform="translate(28,36)"/>
<path d="M0,0 L1,0 L1,1 L0,1 Z " fill="#FD9C9C" opacity="0.7490196" transform="translate(49,35)"/>
<path d="M0,0 L1,0 L1,1 L0,1 Z " fill="#FE9D9D" opacity="0.57254905" transform="translate(29,34)"/>
<path d="M0,0 L1,0 L1,1 L0,1 Z " fill="#FD9C9C" opacity="0.7490196" transform="translate(48,33)"/>
<path d="M0,0 L1,0 L1,1 L0,1 Z " fill="#FD9C9C" opacity="0.7490196" transform="translate(47,31)"/>
<path d="M0,0 L1,0 L1,1 L0,1 Z " fill="#FC9B9B" opacity="0.84313726" transform="translate(31,31)"/>
<path d="M0,0 L1,0 L1,1 L0,1 Z " fill="#FD9C9C" opacity="0.7490196" transform="translate(46,29)"/>
<path d="M0,0 L1,0 L1,1 L0,1 Z " fill="#FD9C9C" opacity="0.7137255" transform="translate(32,29)"/>
<path d="M0,0 L1,0 L1,1 L0,1 Z " fill="#FD9C9C" opacity="0.7490196" transform="translate(45,27)"/>
<path d="M0,0 L1,0 L1,1 L0,1 Z " fill="#FE9D9D" opacity="0.57254905" transform="translate(33,27)"/>
<path d="M0,0 L1,0 L1,1 L0,1 Z " fill="#FD9C9C" opacity="0.7490196" transform="translate(44,25)"/>
<path d="M0,0 L1,0 L1,1 L0,1 Z " fill="#FC9B9B" opacity="0.84313726" transform="translate(35,24)"/>
<path d="M0,0 L1,0 L1,1 L0,1 Z " fill="#FD9C9C" opacity="0.7490196" transform="translate(43,23)"/>
<path d="M0,0 L1,0 L1,1 L0,1 Z " fill="#FD9C9C" opacity="0.7137255" transform="translate(36,22)"/>
<path d="M0,0 L1,0 L1,1 L0,1 Z " fill="#FD9C9C" opacity="0.7490196" transform="translate(42,21)"/>
<path d="M0,0 L1,0 L1,1 L0,1 Z " fill="#FE9D9D" opacity="0.57254905" transform="translate(37,20)"/>
<path d="M0,0 L1,0 L1,1 L0,1 Z " fill="#FD9C9C" opacity="0.7490196" transform="translate(41,19)"/>
<path d="M0,0 L1,0 L1,1 L0,1 Z " fill="#FB9B9B" opacity="0.43137255" transform="translate(38,18)"/>
<path d="M0,0 L1,0 L1,1 L0,1 Z " fill="#FC9C9C" opacity="0.2509804" transform="translate(40,16)"/>
<path d="M0,0 L1,0 L1,1 L0,1 Z " fill="#FC9C9C" opacity="0.9843137" transform="translate(9,70)"/>
<path d="M0,0 L1,0 L1,1 L0,1 Z " fill="#FF9E9E" opacity="0.16470589" transform="translate(8,70)"/>
<path d="M0,0 L1,0 L1,1 L0,1 Z " fill="#FC9C9C" opacity="0.92941177" transform="translate(10,68)"/>
<path d="M0,0 L1,0 L1,1 L0,1 Z " fill="#FC9C9C" opacity="0.07450981" transform="translate(9,68)"/>
<path d="M0,0 L1,0 L1,1 L0,1 Z " fill="#FC9B9B" opacity="0.019607844" transform="translate(10,66)"/>
<path d="M0,0 L1,0 L1,1 L0,1 Z " fill="#FC9B9B" opacity="0.2901961" transform="translate(11,65)"/>
<path d="M0,0 L1,0 L1,1 L0,1 Z " fill="#FC9C9C" opacity="0.9843137" transform="translate(13,63)"/>
<path d="M0,0 L1,0 L1,1 L0,1 Z " fill="#FF9E9E" opacity="0.16470589" transform="translate(12,63)"/>
<path d="M0,0 L1,0 L1,1 L0,1 Z " fill="#FC9C9C" opacity="0.2509804" transform="translate(63,62)"/>
<path d="M0,0 L1,0 L1,1 L0,1 Z " fill="#FC9C9C" opacity="0.92941177" transform="translate(14,61)"/>
<path d="M0,0 L1,0 L1,1 L0,1 Z " fill="#FC9C9C" opacity="0.07450981" transform="translate(13,61)"/>
<path d="M0,0 L1,0 L1,1 L0,1 Z " fill="#FC9C9C" opacity="0.2509804" transform="translate(62,60)"/>
<path d="M0,0 L1,0 L1,1 L0,1 Z " fill="#FC9B9B" opacity="0.019607844" transform="translate(14,59)"/>
<path d="M0,0 L1,0 L1,1 L0,1 Z " fill="#FC9C9C" opacity="0.2509804" transform="translate(61,58)"/>
<path d="M0,0 L1,0 L1,1 L0,1 Z " fill="#FC9B9B" opacity="0.2901961" transform="translate(15,58)"/>
<path d="M0,0 L1,0 L1,1 L0,1 Z " fill="#FC9C9C" opacity="0.2509804" transform="translate(60,56)"/>
<path d="M0,0 L1,0 L1,1 L0,1 Z " fill="#FC9C9C" opacity="0.9843137" transform="translate(17,56)"/>
<path d="M0,0 L1,0 L1,1 L0,1 Z " fill="#FF9E9E" opacity="0.16470589" transform="translate(16,56)"/>
<path d="M0,0 L1,0 L1,1 L0,1 Z " fill="#FC9C9C" opacity="0.2509804" transform="translate(59,54)"/>
<path d="M0,0 L1,0 L1,1 L0,1 Z " fill="#FC9C9C" opacity="0.92941177" transform="translate(18,54)"/>
<path d="M0,0 L1,0 L1,1 L0,1 Z " fill="#FC9C9C" opacity="0.07450981" transform="translate(17,54)"/>
<path d="M0,0 L1,0 L1,1 L0,1 Z " fill="#FC9C9C" opacity="0.2509804" transform="translate(58,52)"/>
<path d="M0,0 L1,0 L1,1 L0,1 Z " fill="#FC9B9B" opacity="0.019607844" transform="translate(18,52)"/>
<path d="M0,0 L1,0 L1,1 L0,1 Z " fill="#FC9B9B" opacity="0.2901961" transform="translate(19,51)"/>
<path d="M0,0 L1,0 L1,1 L0,1 Z " fill="#FC9C9C" opacity="0.2509804" transform="translate(57,50)"/>
<path d="M0,0 L1,0 L1,1 L0,1 Z " fill="#FC9C9C" opacity="0.9843137" transform="translate(21,49)"/>
<path d="M0,0 L1,0 L1,1 L0,1 Z " fill="#FF9E9E" opacity="0.16470589" transform="translate(20,49)"/>
<path d="M0,0 L1,0 L1,1 L0,1 Z " fill="#FC9C9C" opacity="0.2509804" transform="translate(56,48)"/>
<path d="M0,0 L1,0 L1,1 L0,1 Z " fill="#FC9C9C" opacity="0.92941177" transform="translate(22,47)"/>
<path d="M0,0 L1,0 L1,1 L0,1 Z " fill="#FC9C9C" opacity="0.07450981" transform="translate(21,47)"/>
<path d="M0,0 L1,0 L1,1 L0,1 Z " fill="#FC9C9C" opacity="0.2509804" transform="translate(55,46)"/>
<path d="M0,0 L1,0 L1,1 L0,1 Z " fill="#FC9B9B" opacity="0.019607844" transform="translate(22,45)"/>
<path d="M0,0 L1,0 L1,1 L0,1 Z " fill="#FC9C9C" opacity="0.2509804" transform="translate(54,44)"/>
<path d="M0,0 L1,0 L1,1 L0,1 Z " fill="#FC9B9B" opacity="0.2901961" transform="translate(23,44)"/>
<path d="M0,0 L1,0 L1,1 L0,1 Z " fill="#FC9C9C" opacity="0.2509804" transform="translate(53,42)"/>
<path d="M0,0 L1,0 L1,1 L0,1 Z " fill="#FC9C9C" opacity="0.9843137" transform="translate(25,42)"/>
<path d="M0,0 L1,0 L1,1 L0,1 Z " fill="#FF9E9E" opacity="0.16470589" transform="translate(24,42)"/>
<path d="M0,0 L1,0 L1,1 L0,1 Z " fill="#FC9C9C" opacity="0.2509804" transform="translate(52,40)"/>
<path d="M0,0 L1,0 L1,1 L0,1 Z " fill="#FC9C9C" opacity="0.92941177" transform="translate(26,40)"/>
<path d="M0,0 L1,0 L1,1 L0,1 Z " fill="#FC9C9C" opacity="0.07450981" transform="translate(25,40)"/>
<path d="M0,0 L1,0 L1,1 L0,1 Z " fill="#FC9C9C" opacity="0.2509804" transform="translate(51,38)"/>
<path d="M0,0 L1,0 L1,1 L0,1 Z " fill="#FC9B9B" opacity="0.019607844" transform="translate(26,38)"/>
<path d="M0,0 L1,0 L1,1 L0,1 Z " fill="#FC9B9B" opacity="0.2901961" transform="translate(27,37)"/>
<path d="M0,0 L1,0 L1,1 L0,1 Z " fill="#FC9C9C" opacity="0.2509804" transform="translate(50,36)"/>
<path d="M0,0 L1,0 L1,1 L0,1 Z " fill="#FC9C9C" opacity="0.9843137" transform="translate(29,35)"/>
<path d="M0,0 L1,0 L1,1 L0,1 Z " fill="#FF9E9E" opacity="0.16470589" transform="translate(28,35)"/>
<path d="M0,0 L1,0 L1,1 L0,1 Z " fill="#FC9C9C" opacity="0.2509804" transform="translate(49,34)"/>
<path d="M0,0 L1,0 L1,1 L0,1 Z " fill="#FC9C9C" opacity="0.92941177" transform="translate(30,33)"/>
<path d="M0,0 L1,0 L1,1 L0,1 Z " fill="#FC9C9C" opacity="0.07450981" transform="translate(29,33)"/>
<path d="M0,0 L1,0 L1,1 L0,1 Z " fill="#FC9C9C" opacity="0.2509804" transform="translate(48,32)"/>
<path d="M0,0 L1,0 L1,1 L0,1 Z " fill="#FC9B9B" opacity="0.019607844" transform="translate(30,31)"/>
<path d="M0,0 L1,0 L1,1 L0,1 Z " fill="#FC9C9C" opacity="0.2509804" transform="translate(47,30)"/>
<path d="M0,0 L1,0 L1,1 L0,1 Z " fill="#FC9B9B" opacity="0.2901961" transform="translate(31,30)"/>
<path d="M0,0 L1,0 L1,1 L0,1 Z " fill="#FC9C9C" opacity="0.2509804" transform="translate(46,28)"/>
<path d="M0,0 L1,0 L1,1 L0,1 Z " fill="#FC9C9C" opacity="0.9843137" transform="translate(33,28)"/>
<path d="M0,0 L1,0 L1,1 L0,1 Z " fill="#FF9E9E" opacity="0.16470589" transform="translate(32,28)"/>
<path d="M0,0 L1,0 L1,1 L0,1 Z " fill="#FC9C9C" opacity="0.2509804" transform="translate(45,26)"/>
<path d="M0,0 L1,0 L1,1 L0,1 Z " fill="#FC9C9C" opacity="0.92941177" transform="translate(34,26)"/>
<path d="M0,0 L1,0 L1,1 L0,1 Z " fill="#FC9C9C" opacity="0.07450981" transform="translate(33,26)"/>
<path d="M0,0 L1,0 L1,1 L0,1 Z " fill="#FC9C9C" opacity="0.2509804" transform="translate(44,24)"/>
<path d="M0,0 L1,0 L1,1 L0,1 Z " fill="#FC9B9B" opacity="0.019607844" transform="translate(34,24)"/>
<path d="M0,0 L1,0 L1,1 L0,1 Z " fill="#FC9B9B" opacity="0.2901961" transform="translate(35,23)"/>
<path d="M0,0 L1,0 L1,1 L0,1 Z " fill="#FC9C9C" opacity="0.2509804" transform="translate(43,22)"/>
<path d="M0,0 L1,0 L1,1 L0,1 Z " fill="#FC9C9C" opacity="0.9843137" transform="translate(37,21)"/>
<path d="M0,0 L1,0 L1,1 L0,1 Z " fill="#FF9E9E" opacity="0.16470589" transform="translate(36,21)"/>
<path d="M0,0 L1,0 L1,1 L0,1 Z " fill="#FC9C9C" opacity="0.2509804" transform="translate(42,20)"/>
<path d="M0,0 L1,0 L1,1 L0,1 Z " fill="#FC9C9C" opacity="0.92941177" transform="translate(38,19)"/>
<path d="M0,0 L1,0 L1,1 L0,1 Z " fill="#FC9C9C" opacity="0.07450981" transform="translate(37,19)"/>
<path d="M0,0 L1,0 L1,1 L0,1 Z " fill="#FC9C9C" opacity="0.2509804" transform="translate(41,18)"/>
<path d="M0,0 L1,0 L1,1 L0,1 Z " fill="#FC9B9B" opacity="0.84313726" transform="translate(39,17)"/>
<path d="M0,0 L1,0 L1,1 L0,1 Z " fill="#FC9B9B" opacity="0.019607844" transform="translate(38,17)"/>
<path d="M0,0 L1,0 L1,1 L0,1 Z " fill="#FC9B9B" opacity="0.2901961" transform="translate(39,16)"/>
</svg>
