<?xml version="1.0" encoding="UTF-8"?>
<!-- Generator: visioncortex VTracer 0.6.4 -->
<svg version="1.1" xmlns="http://www.w3.org/2000/svg" width="16" height="16">
<path d="M0,0 L2,0 L2,1 L3,1 L3,3 L5,3 L5,4 L3,4 L3,10 L0,10 L0,11 L-1,11 L-1,10 L-2,10 L-2,9 L-1,9 L-1,4 L-3,4 L-3,3 L-1,3 L-1,1 L0,1 Z " fill="#000000" opacity="0.5019608" transform="translate(7,4)"/>
<path d="M0,0 L2,0 L2,1 L3,1 L3,10 L-1,10 L-1,4 L-2,4 L-2,3 L-1,3 L-1,1 L0,1 Z " fill="#E0E0E0" transform="translate(7,4)"/>
<path d="M0,0 L1,0 L1,5 L3,5 L3,0 L4,0 L4,6 L0,6 Z " fill="#707070" transform="translate(6,8)"/>
<path d="M0,0 L1,0 L1,1 L0,1 Z M1,4 L2,4 L2,5 L1,5 Z " fill="#0C0C0C" opacity="0.6392157" transform="translate(9,3)"/>
<path d="M0,0 L1,0 L1,1 L0,1 Z " fill="#090909" opacity="0.92156863" transform="translate(8,2)"/>
<path d="M0,0 L1,0 L1,2 L0,2 Z M-1,2 L0,2 L0,3 L-1,3 Z " fill="#000000" opacity="0.5019608" transform="translate(11,7)"/>
<path d="M0,0 L1,0 L1,2 L0,2 Z M1,2 L2,2 L2,3 L1,3 Z " fill="#000000" opacity="0.5019608" transform="translate(4,7)"/>
<path d="M0,0 L2,0 L2,1 L1,1 L1,3 L-1,3 L-1,2 L0,2 Z " fill="#E0E0E0" transform="translate(6,5)"/>
<path d="M0,0 L1,0 L1,1 L0,1 Z " fill="#090909" opacity="0.9254902" transform="translate(5,5)"/>
<path d="M0,0 L1,0 L1,4 L0,4 Z " fill="#707070" transform="translate(9,8)"/>
<path d="M0,0 L1,0 L1,4 L0,4 Z " fill="#707070" transform="translate(6,8)"/>
<path d="M0,0 L1,0 L1,1 L0,1 Z M-1,1 L0,1 L0,2 L-1,2 Z " fill="#000000" opacity="0.5019608" transform="translate(10,13)"/>
<path d="M0,0 L1,0 L1,3 L0,3 Z " fill="#000000" opacity="0.5019608" transform="translate(10,10)"/>
<path d="M0,0 L1,0 L1,3 L0,3 Z " fill="#000000" opacity="0.5019608" transform="translate(5,10)"/>
<path d="M0,0 L2,0 L2,1 L0,1 Z " fill="#000000" opacity="0.5019608" transform="translate(7,14)"/>
<path d="M0,0 L1,0 L1,1 L0,1 Z " fill="#000000" opacity="0.38431373" transform="translate(12,8)"/>
<path d="M0,0 L1,0 L1,1 L0,1 Z " fill="#000000" opacity="0.38431373" transform="translate(3,8)"/>
<path d="M0,0 L1,0 L1,1 L0,1 Z " fill="#636363" transform="translate(10,7)"/>
<path d="M0,0 L1,0 L1,1 L0,1 Z " fill="#646464" transform="translate(5,7)"/>
<path d="M0,0 L1,0 L1,1 L0,1 Z " fill="#0C0C0C" opacity="0.6431373" transform="translate(4,6)"/>
<path d="M0,0 L2,0 L2,1 L0,1 Z " fill="#D3D3D3" transform="translate(7,4)"/>
<path d="M0,0 L1,0 L1,1 L0,1 Z " fill="#535353" opacity="0.96862745" transform="translate(8,3)"/>
<path d="M0,0 L1,0 L1,1 L0,1 Z " fill="#0C0C0C" opacity="0.6431373" transform="translate(6,3)"/>
<path d="M0,0 L1,0 L1,1 L0,1 Z " fill="#000000" opacity="0.27058825" transform="translate(8,1)"/>
<path d="M0,0 L1,0 L1,1 L0,1 Z " fill="#000000" opacity="0.2509804" transform="translate(10,14)"/>
<path d="M0,0 L1,0 L1,1 L0,1 Z " fill="#000000" opacity="0.2509804" transform="translate(5,14)"/>
<path d="M0,0 L1,0 L1,1 L0,1 Z " fill="#383838" transform="translate(9,13)"/>
<path d="M0,0 L1,0 L1,1 L0,1 Z " fill="#383838" transform="translate(6,13)"/>
<path d="M0,0 L1,0 L1,1 L0,1 Z " fill="#000000" opacity="0.7529412" transform="translate(10,8)"/>
<path d="M0,0 L1,0 L1,1 L0,1 Z " fill="#000000" opacity="0.7529412" transform="translate(5,8)"/>
<path d="M0,0 L1,0 L1,1 L0,1 Z " fill="#000000" opacity="0.27450982" transform="translate(12,7)"/>
<path d="M0,0 L1,0 L1,1 L0,1 Z " fill="#010101" transform="translate(11,7)"/>
<path d="M0,0 L1,0 L1,1 L0,1 Z " fill="#A8A8A8" transform="translate(9,7)"/>
<path d="M0,0 L1,0 L1,1 L0,1 Z " fill="#A8A8A8" transform="translate(6,7)"/>
<path d="M0,0 L1,0 L1,1 L0,1 Z " fill="#010101" transform="translate(4,7)"/>
<path d="M0,0 L1,0 L1,1 L0,1 Z " fill="#000000" opacity="0.27450982" transform="translate(3,7)"/>
<path d="M0,0 L1,0 L1,1 L0,1 Z " fill="#0C0C0C" opacity="0.6392157" transform="translate(11,6)"/>
<path d="M0,0 L1,0 L1,1 L0,1 Z " fill="#535353" opacity="0.96862745" transform="translate(10,6)"/>
<path d="M0,0 L1,0 L1,1 L0,1 Z " fill="#545454" opacity="0.96862745" transform="translate(5,6)"/>
<path d="M0,0 L1,0 L1,1 L0,1 Z " fill="#090909" opacity="0.05490196" transform="translate(11,5)"/>
<path d="M0,0 L1,0 L1,1 L0,1 Z " fill="#090909" opacity="0.92156863" transform="translate(10,5)"/>
<path d="M0,0 L1,0 L1,1 L0,1 Z " fill="#A3A3A3" transform="translate(9,5)"/>
<path d="M0,0 L1,0 L1,1 L0,1 Z " fill="#A3A3A3" transform="translate(6,5)"/>
<path d="M0,0 L1,0 L1,1 L0,1 Z " fill="#090909" opacity="0.05490196" transform="translate(4,5)"/>
<path d="M0,0 L1,0 L1,1 L0,1 Z " fill="#000000" opacity="0.27450982" transform="translate(10,4)"/>
<path d="M0,0 L1,0 L1,1 L0,1 Z " fill="#121212" opacity="0.9647059" transform="translate(9,4)"/>
<path d="M0,0 L1,0 L1,1 L0,1 Z " fill="#D4D4D4" transform="translate(7,4)"/>
<path d="M0,0 L1,0 L1,1 L0,1 Z " fill="#131313" opacity="0.9607843" transform="translate(6,4)"/>
<path d="M0,0 L1,0 L1,1 L0,1 Z " fill="#000000" opacity="0.27450982" transform="translate(5,4)"/>
<path d="M0,0 L1,0 L1,1 L0,1 Z " fill="#545454" opacity="0.96862745" transform="translate(7,3)"/>
<path d="M0,0 L1,0 L1,1 L0,1 Z " fill="#090909" opacity="0.05490196" transform="translate(9,2)"/>
<path d="M0,0 L1,0 L1,1 L0,1 Z " fill="#090909" opacity="0.9254902" transform="translate(7,2)"/>
<path d="M0,0 L1,0 L1,1 L0,1 Z " fill="#090909" opacity="0.05490196" transform="translate(6,2)"/>
<path d="M0,0 L1,0 L1,1 L0,1 Z " fill="#000000" opacity="0.27450982" transform="translate(7,1)"/>
</svg>
