<?xml version="1.0" encoding="UTF-8"?>
<!-- Generator: visioncortex VTracer 0.6.4 -->
<svg version="1.1" xmlns="http://www.w3.org/2000/svg" width="16" height="16">
<path d="M0,0 L1,0 L1,1 L2,1 L2,2 L1,2 L1,3 L0,3 L0,4 L-1,4 L-1,5 L-2,5 L-2,8 L-7,8 L-7,7 L-6,7 L-6,4 L-3,4 L-3,3 L-2,3 L-2,2 L-1,2 L-1,1 L0,1 Z M-6,2 L-5,2 L-5,3 L-6,3 Z M-1,7 L0,7 L0,8 L-1,8 Z " fill="#1D1D1D" opacity="0.9490196" transform="translate(10,4)"/>
<path d="M0,0 L1,0 L1,1 L2,1 L2,2 L1,2 L1,3 L0,3 L0,4 L-1,4 L-1,5 L-2,5 L-2,8 L-6,8 L-6,4 L-3,4 L-3,3 L-2,3 L-2,2 L-1,2 L-1,1 L0,1 Z " fill="#E0E0E0" transform="translate(10,4)"/>
<path d="M0,0 L1,0 L1,2 L0,2 Z " fill="#0C0C0C" opacity="0.78431374" transform="translate(9,10)"/>
<path d="M0,0 L1,0 L1,1 L0,1 Z M-1,1 L0,1 L0,2 L-1,2 Z M-2,2 L-1,2 L-1,3 L-2,3 Z " fill="#090909" opacity="0.93333334" transform="translate(9,3)"/>
<path d="M0,0 L2,0 L2,1 L0,1 Z " fill="#000000" opacity="0.20392157" transform="translate(3,6)"/>
<path d="M0,0 L1,0 L1,1 L0,1 Z " fill="#000000" opacity="0.3019608" transform="translate(2,13)"/>
<path d="M0,0 L1,0 L1,1 L0,1 Z M-1,1 L0,1 L0,2 L-1,2 Z M-2,2 L-1,2 L-1,3 L-2,3 Z " fill="#000000" opacity="0.13333334" transform="translate(13,6)"/>
<path d="M0,0 L1,0 L1,1 L0,1 Z M-1,1 L0,1 L0,3 L-1,3 Z " fill="#4F4F4F" opacity="0.972549" transform="translate(5,7)"/>
<path d="M0,0 L1,0 L1,1 L0,1 Z M-2,1 L0,1 L0,2 L-2,2 Z " fill="#4D4D4D" opacity="0.972549" transform="translate(8,10)"/>
<path d="M0,0 L1,0 L1,1 L0,1 Z M1,1 L2,1 L2,2 L1,2 Z " fill="#AEAEAE" transform="translate(10,4)"/>
<path d="M0,0 L1,0 L1,1 L0,1 Z " fill="#010101" opacity="0.015686275" transform="translate(10,12)"/>
<path d="M0,0 L1,0 L1,1 L0,1 Z M-1,1 L0,1 L0,2 L-1,2 Z " fill="#0A0A0A" opacity="0.92156863" transform="translate(12,6)"/>
<path d="M0,0 L2,0 L2,1 L0,1 Z " fill="#0C0C0C" opacity="0.78431374" transform="translate(4,6)"/>
<path d="M0,0 L1,0 L1,1 L0,1 Z M1,1 L2,1 L2,2 L1,2 Z " fill="#030303" opacity="0.27450982" transform="translate(11,3)"/>
<path d="M0,0 L1,0 L1,1 L0,1 Z " fill="#000000" opacity="0.38039216" transform="translate(8,12)"/>
<path d="M0,0 L2,0 L2,1 L0,1 Z " fill="#7B7B7B" transform="translate(6,11)"/>
<path d="M0,0 L1,0 L1,1 L0,1 Z " fill="#000000" opacity="0.20392157" transform="translate(2,11)"/>
<path d="M0,0 L1,0 L1,1 L0,1 Z " fill="#000000" opacity="0.02745098" transform="translate(10,10)"/>
<path d="M0,0 L1,0 L1,2 L0,2 Z " fill="#AEAEAE" transform="translate(4,8)"/>
<path d="M0,0 L1,0 L1,1 L0,1 Z " fill="#0F0F0F" opacity="0.8627451" transform="translate(3,9)"/>
<path d="M0,0 L1,0 L1,1 L0,1 Z M-1,1 L0,1 L0,2 L-1,2 Z " fill="#909090" opacity="0.99607843" transform="translate(7,6)"/>
<path d="M0,0 L1,0 L1,1 L0,1 Z " fill="#000000" opacity="0.15686275" transform="translate(6,5)"/>
<path d="M0,0 L1,0 L1,1 L0,1 Z " fill="#010101" opacity="0.69803923" transform="translate(4,5)"/>
<path d="M0,0 L1,0 L1,1 L0,1 Z M-1,1 L0,1 L0,2 L-1,2 Z " fill="#8F8F8F" opacity="0.99607843" transform="translate(9,4)"/>
<path d="M0,0 L1,0 L1,1 L0,1 Z M-1,1 L0,1 L0,2 L-1,2 Z " fill="#000000" opacity="0.15294118" transform="translate(8,3)"/>
<path d="M0,0 L1,0 L1,1 L0,1 Z " fill="#000000" opacity="0.25882354" transform="translate(10,2)"/>
<path d="M0,0 L1,0 L1,1 L0,1 Z " fill="#050505" opacity="0.015686275" transform="translate(5,13)"/>
<path d="M0,0 L1,0 L1,1 L0,1 Z " fill="#000000" opacity="0.18039216" transform="translate(4,13)"/>
<path d="M0,0 L1,0 L1,1 L0,1 Z " fill="#000000" opacity="0.38039216" transform="translate(3,13)"/>
<path d="M0,0 L1,0 L1,1 L0,1 Z " fill="#000000" opacity="0.18039216" transform="translate(9,12)"/>
<path d="M0,0 L1,0 L1,1 L0,1 Z " fill="#0B0B0B" opacity="0.6117647" transform="translate(7,12)"/>
<path d="M0,0 L1,0 L1,1 L0,1 Z " fill="#101010" opacity="0.84313726" transform="translate(6,12)"/>
<path d="M0,0 L1,0 L1,1 L0,1 Z " fill="#050505" opacity="0.98039216" transform="translate(5,12)"/>
<path d="M0,0 L1,0 L1,1 L0,1 Z " fill="#181818" opacity="0.9529412" transform="translate(4,12)"/>
<path d="M0,0 L1,0 L1,1 L0,1 Z " fill="#101010" opacity="0.98039216" transform="translate(3,12)"/>
<path d="M0,0 L1,0 L1,1 L0,1 Z " fill="#000000" opacity="0.40392157" transform="translate(2,12)"/>
<path d="M0,0 L1,0 L1,1 L0,1 Z " fill="#010101" opacity="0.003921569" transform="translate(11,11)"/>
<path d="M0,0 L1,0 L1,1 L0,1 Z " fill="#010101" opacity="0.6862745" transform="translate(10,11)"/>
<path d="M0,0 L1,0 L1,1 L0,1 Z " fill="#000000" transform="translate(9,11)"/>
<path d="M0,0 L1,0 L1,1 L0,1 Z " fill="#454545" opacity="0.95686275" transform="translate(8,11)"/>
<path d="M0,0 L1,0 L1,1 L0,1 Z " fill="#A8A8A8" transform="translate(6,11)"/>
<path d="M0,0 L1,0 L1,1 L0,1 Z " fill="#D4D4D4" transform="translate(5,11)"/>
<path d="M0,0 L1,0 L1,1 L0,1 Z " fill="#D8D8D8" transform="translate(4,10)"/>
<path d="M0,0 L1,0 L1,1 L0,1 Z " fill="#040404" opacity="0.9843137" transform="translate(3,10)"/>
<path d="M0,0 L1,0 L1,1 L0,1 Z " fill="#040404" opacity="0.023529412" transform="translate(2,10)"/>
<path d="M0,0 L1,0 L1,1 L0,1 Z " fill="#000000" opacity="0.13725491" transform="translate(10,9)"/>
<path d="M0,0 L1,0 L1,1 L0,1 Z " fill="#0A0A0A" opacity="0.9254902" transform="translate(9,9)"/>
<path d="M0,0 L1,0 L1,1 L0,1 Z " fill="#8A8A8A" opacity="0.99607843" transform="translate(8,9)"/>
<path d="M0,0 L1,0 L1,1 L0,1 Z " fill="#090909" opacity="0.9254902" transform="translate(10,8)"/>
<path d="M0,0 L1,0 L1,1 L0,1 Z " fill="#888888" opacity="0.99215686" transform="translate(9,8)"/>
<path d="M0,0 L1,0 L1,1 L0,1 Z " fill="#E0E0E0" transform="translate(5,8)"/>
<path d="M0,0 L1,0 L1,1 L0,1 Z " fill="#808080" transform="translate(4,8)"/>
<path d="M0,0 L1,0 L1,1 L0,1 Z " fill="#0E0E0E" opacity="0.6431373" transform="translate(3,8)"/>
<path d="M0,0 L1,0 L1,1 L0,1 Z " fill="#878787" opacity="0.99215686" transform="translate(10,7)"/>
<path d="M0,0 L1,0 L1,1 L0,1 Z " fill="#4A4A4A" opacity="0.9647059" transform="translate(4,7)"/>
<path d="M0,0 L1,0 L1,1 L0,1 Z " fill="#000000" opacity="0.40392157" transform="translate(3,7)"/>
<path d="M0,0 L1,0 L1,1 L0,1 Z " fill="#868686" opacity="0.99215686" transform="translate(11,6)"/>
<path d="M0,0 L1,0 L1,1 L0,1 Z " fill="#090909" opacity="0.9372549" transform="translate(6,6)"/>
<path d="M0,0 L1,0 L1,1 L0,1 Z " fill="#010101" transform="translate(4,6)"/>
<path d="M0,0 L1,0 L1,1 L0,1 Z " fill="#000000" opacity="0.25882354" transform="translate(13,5)"/>
<path d="M0,0 L1,0 L1,1 L0,1 Z " fill="#090909" opacity="0.9647059" transform="translate(12,5)"/>
<path d="M0,0 L1,0 L1,1 L0,1 Z " fill="#010101" opacity="0.02745098" transform="translate(5,5)"/>
<path d="M0,0 L1,0 L1,1 L0,1 Z " fill="#010101" opacity="0.023529412" transform="translate(3,5)"/>
<path d="M0,0 L1,0 L1,1 L0,1 Z " fill="#0B0B0B" opacity="0.9607843" transform="translate(11,4)"/>
<path d="M0,0 L1,0 L1,1 L0,1 Z " fill="#010101" opacity="0.007843138" transform="translate(4,4)"/>
<path d="M0,0 L1,0 L1,1 L0,1 Z " fill="#0A0A0A" opacity="0.9647059" transform="translate(10,3)"/>
<path d="M0,0 L1,0 L1,1 L0,1 Z " fill="#000000" opacity="0.14901961" transform="translate(9,2)"/>
</svg>
