<?xml version="1.0" encoding="UTF-8"?>
<!-- Generator: visioncortex VTracer 0.6.4 -->
<svg version="1.1" xmlns="http://www.w3.org/2000/svg" width="16" height="64">
<path d="M0,0 L4,0 L4,45 L6,45 L6,47 L5,47 L5,49 L4,49 L4,51 L3,51 L3,53 L1,53 L1,51 L0,51 L0,49 L-1,49 L-1,47 L-2,47 L-2,45 L0,45 Z " fill="#E0E0E0" transform="translate(5,4)"/>
<path d="M0,0 L1,0 L1,1 L0,1 Z " fill="#E0E0E0" opacity="0.96862745" transform="translate(5,55)"/>
<path d="M0,0 L1,0 L1,1 L0,1 Z " fill="#E1E1E1" opacity="0.22745098" transform="translate(7,59)"/>
<path d="M0,0 L1,0 L1,1 L0,1 Z " fill="#E1E1E1" opacity="0.68235296" transform="translate(7,58)"/>
<path d="M0,0 L2,0 L2,1 L0,1 Z " fill="#E0E0E0" opacity="0.99607843" transform="translate(6,57)"/>
<path d="M0,0 L1,0 L1,1 L0,1 Z " fill="#E0E0E0" opacity="0.039215688" transform="translate(10,53)"/>
<path d="M0,0 L1,0 L1,1 L0,1 Z " fill="#E0E0E0" opacity="0.039215688" transform="translate(3,53)"/>
<path d="M0,0 L1,0 L1,1 L0,1 Z " fill="#E0E0E0" opacity="0.011764706" transform="translate(11,51)"/>
<path d="M0,0 L1,0 L1,1 L0,1 Z " fill="#E0E0E0" opacity="0.011764706" transform="translate(2,51)"/>
<path d="M0,0 L1,0 L1,1 L0,1 Z " fill="#E0E0E0" transform="translate(3,49)"/>
<path d="M0,0 L1,0 L1,1 L0,1 Z " fill="#E1E1E1" opacity="0.23137255" transform="translate(6,59)"/>
<path d="M0,0 L1,0 L1,1 L0,1 Z " fill="#E1E1E1" opacity="0.6862745" transform="translate(6,58)"/>
<path d="M0,0 L1,0 L1,1 L0,1 Z " fill="#E5E5E5" opacity="0.14901961" transform="translate(8,57)"/>
<path d="M0,0 L1,0 L1,1 L0,1 Z " fill="#E5E5E5" opacity="0.14901961" transform="translate(5,57)"/>
<path d="M0,0 L1,0 L1,1 L0,1 Z " fill="#E1E1E1" opacity="0.5921569" transform="translate(8,56)"/>
<path d="M0,0 L1,0 L1,1 L0,1 Z " fill="#E0E0E0" opacity="0.59607846" transform="translate(5,56)"/>
<path d="M0,0 L1,0 L1,1 L0,1 Z " fill="#E7E7E7" opacity="0.08235294" transform="translate(9,55)"/>
<path d="M0,0 L1,0 L1,1 L0,1 Z " fill="#E0E0E0" opacity="0.96862745" transform="translate(8,55)"/>
<path d="M0,0 L1,0 L1,1 L0,1 Z " fill="#E7E7E7" opacity="0.08235294" transform="translate(4,55)"/>
<path d="M0,0 L1,0 L1,1 L0,1 Z " fill="#E0E0E0" opacity="0.5019608" transform="translate(9,54)"/>
<path d="M0,0 L1,0 L1,1 L0,1 Z " fill="#E0E0E0" opacity="0.5058824" transform="translate(4,54)"/>
<path d="M0,0 L1,0 L1,1 L0,1 Z " fill="#E0E0E0" opacity="0.92156863" transform="translate(9,53)"/>
<path d="M0,0 L1,0 L1,1 L0,1 Z " fill="#E0E0E0" opacity="0.9254902" transform="translate(4,53)"/>
<path d="M0,0 L1,0 L1,1 L0,1 Z " fill="#E0E0E0" opacity="0.40784314" transform="translate(10,52)"/>
<path d="M0,0 L1,0 L1,1 L0,1 Z " fill="#E0E0E0" opacity="0.4117647" transform="translate(3,52)"/>
<path d="M0,0 L1,0 L1,1 L0,1 Z " fill="#E0E0E0" opacity="0.85882354" transform="translate(10,51)"/>
<path d="M0,0 L1,0 L1,1 L0,1 Z " fill="#E0E0E0" opacity="0.85882354" transform="translate(3,51)"/>
<path d="M0,0 L1,0 L1,1 L0,1 Z " fill="#E0E0E0" opacity="0.31764707" transform="translate(11,50)"/>
<path d="M0,0 L1,0 L1,1 L0,1 Z " fill="#E0E0E0" opacity="0.32156864" transform="translate(2,50)"/>
<path d="M0,0 L1,0 L1,1 L0,1 Z " fill="#E0E0E0" opacity="0.7764706" transform="translate(11,49)"/>
<path d="M0,0 L1,0 L1,1 L0,1 Z " fill="#E0E0E0" opacity="0.7764706" transform="translate(2,49)"/>
</svg>
