<?xml version="1.0" encoding="UTF-8"?>
<!-- Generator: visioncortex VTracer 0.6.4 -->
<svg version="1.1" xmlns="http://www.w3.org/2000/svg" width="16" height="16">
<path d="M0,0 L4,0 L4,3 L5,3 L5,4 L6,4 L6,5 L7,5 L7,6 L8,6 L8,7 L7,7 L7,8 L6,8 L6,7 L5,7 L5,6 L4,6 L4,5 L3,5 L3,4 L0,4 Z M5,0 L6,0 L6,1 L5,1 Z M0,5 L1,5 L1,6 L0,6 Z M4,8 L5,8 L5,9 L4,9 Z M5,9 L6,9 L6,10 L5,10 Z " fill="#000000" opacity="0.1254902" transform="translate(4,4)"/>
<path d="M0,0 L4,0 L4,3 L5,3 L5,4 L6,4 L6,5 L7,5 L7,6 L8,6 L8,7 L7,7 L7,8 L6,8 L6,7 L5,7 L5,6 L4,6 L4,5 L3,5 L3,4 L1,4 L1,3 L0,3 Z " fill="#E0E0E0" transform="translate(4,4)"/>
<path d="M0,0 L1,0 L1,1 L0,1 Z M1,3 L2,3 L2,4 L1,4 Z " fill="#1B1B1B" opacity="0.9490196" transform="translate(3,4)"/>
<path d="M0,0 L2,0 L2,1 L0,1 Z " fill="#010101" opacity="0.6666667" transform="translate(9,4)"/>
<path d="M0,0 L1,0 L1,2 L0,2 Z " fill="#010101" opacity="0.654902" transform="translate(4,9)"/>
<path d="M0,0 L1,0 L1,1 L0,1 Z M1,2 L2,2 L2,3 L1,3 Z M2,3 L3,3 L3,4 L2,4 Z M3,4 L4,4 L4,5 L3,5 Z M4,5 L5,5 L5,7 L4,7 Z M3,7 L4,7 L4,8 L3,8 Z " fill="#909090" opacity="0.99607843" transform="translate(7,4)"/>
<path d="M0,0 L1,0 L1,1 L0,1 Z " fill="#000000" opacity="0.39607844" transform="translate(2,3)"/>
<path d="M0,0 L1,0 L1,1 L0,1 Z M1,1 L2,1 L2,2 L1,2 Z M2,2 L3,2 L3,3 L2,3 Z M3,3 L4,3 L4,4 L3,4 Z " fill="#090909" opacity="0.9372549" transform="translate(9,6)"/>
<path d="M0,0 L3,0 L3,1 L2,1 L2,2 L1,2 L1,3 L0,3 Z " fill="#E0E0E0" transform="translate(4,4)"/>
<path d="M0,0 L1,0 L1,2 L0,2 Z " fill="#464646" opacity="0.9607843" transform="translate(4,7)"/>
<path d="M0,0 L1,0 L1,1 L0,1 Z M1,1 L2,1 L2,2 L1,2 Z M2,2 L3,2 L3,3 L2,3 Z M3,3 L4,3 L4,4 L3,4 Z " fill="#000000" opacity="0.15686275" transform="translate(10,6)"/>
<path d="M0,0 L1,0 L1,1 L0,1 Z M-1,1 L0,1 L0,2 L-1,2 Z M-2,2 L-1,2 L-1,3 L-2,3 Z " fill="#000000" opacity="0.23137255" transform="translate(13,10)"/>
<path d="M0,0 L1,0 L1,1 L0,1 Z M-1,1 L0,1 L0,2 L-1,2 Z " fill="#A6A6A6" transform="translate(11,10)"/>
<path d="M0,0 L1,0 L1,1 L0,1 Z M1,1 L2,1 L2,2 L1,2 Z " fill="#000000" opacity="0.12941177" transform="translate(6,10)"/>
<path d="M0,0 L1,0 L1,1 L0,1 Z " fill="#000000" opacity="0.19215687" transform="translate(3,9)"/>
<path d="M0,0 L1,0 L1,1 L0,1 Z " fill="#0F0F0F" opacity="0.85490197" transform="translate(3,6)"/>
<path d="M0,0 L2,0 L2,1 L0,1 Z " fill="#515151" opacity="0.96862745" transform="translate(7,4)"/>
<path d="M0,0 L1,0 L1,1 L0,1 Z " fill="#000000" opacity="0.22745098" transform="translate(9,3)"/>
<path d="M0,0 L1,0 L1,1 L0,1 Z " fill="#0E0E0E" opacity="0.8862745" transform="translate(6,3)"/>
<path d="M0,0 L1,0 L1,1 L0,1 Z " fill="#090909" opacity="0.9607843" transform="translate(10,12)"/>
<path d="M0,0 L1,0 L1,1 L0,1 Z M1,1 L2,1 L2,2 L1,2 Z " fill="#0A0A0A" opacity="0.91764706" transform="translate(7,10)"/>
<path d="M0,0 L1,0 L1,1 L0,1 Z " fill="#090909" opacity="0.92156863" transform="translate(6,9)"/>
<path d="M0,0 L1,0 L1,1 L0,1 Z M1,1 L2,1 L2,2 L1,2 Z " fill="#868686" opacity="0.99215686" transform="translate(6,8)"/>
<path d="M0,0 L1,0 L1,1 L0,1 Z " fill="#000000" opacity="0.22352941" transform="translate(10,13)"/>
<path d="M0,0 L1,0 L1,1 L0,1 Z " fill="#090909" opacity="0.91764706" transform="translate(9,12)"/>
<path d="M0,0 L1,0 L1,1 L0,1 Z " fill="#0A0A0A" opacity="0.95686275" transform="translate(11,11)"/>
<path d="M0,0 L1,0 L1,1 L0,1 Z " fill="#838383" opacity="0.99215686" transform="translate(9,11)"/>
<path d="M0,0 L1,0 L1,1 L0,1 Z " fill="#090909" opacity="0.9607843" transform="translate(12,10)"/>
<path d="M0,0 L1,0 L1,1 L0,1 Z " fill="#858585" opacity="0.99215686" transform="translate(8,10)"/>
<path d="M0,0 L1,0 L1,1 L0,1 Z " fill="#0C0C0C" opacity="0.019607844" transform="translate(5,10)"/>
<path d="M0,0 L1,0 L1,1 L0,1 Z " fill="#000000" opacity="0.019607844" transform="translate(3,10)"/>
<path d="M0,0 L1,0 L1,1 L0,1 Z " fill="#0C0C0C" opacity="0.74509805" transform="translate(5,9)"/>
<path d="M0,0 L1,0 L1,1 L0,1 Z " fill="#000000" transform="translate(4,9)"/>
<path d="M0,0 L1,0 L1,1 L0,1 Z " fill="#424242" opacity="0.96862745" transform="translate(5,8)"/>
<path d="M0,0 L1,0 L1,1 L0,1 Z " fill="#000000" opacity="0.39215687" transform="translate(3,8)"/>
<path d="M0,0 L1,0 L1,1 L0,1 Z " fill="#7E7E7E" transform="translate(4,7)"/>
<path d="M0,0 L1,0 L1,1 L0,1 Z " fill="#0C0C0C" opacity="0.6313726" transform="translate(3,7)"/>
<path d="M0,0 L1,0 L1,1 L0,1 Z " fill="#ABABAB" transform="translate(4,6)"/>
<path d="M0,0 L1,0 L1,1 L0,1 Z " fill="#010101" opacity="0.019607844" transform="translate(10,5)"/>
<path d="M0,0 L1,0 L1,1 L0,1 Z " fill="#0B0B0B" opacity="0.7607843" transform="translate(9,5)"/>
<path d="M0,0 L1,0 L1,1 L0,1 Z " fill="#474747" opacity="0.972549" transform="translate(8,5)"/>
<path d="M0,0 L1,0 L1,1 L0,1 Z " fill="#D6D6D6" transform="translate(4,5)"/>
<path d="M0,0 L1,0 L1,1 L0,1 Z " fill="#050505" opacity="0.98039216" transform="translate(3,5)"/>
<path d="M0,0 L1,0 L1,1 L0,1 Z " fill="#000000" opacity="0.019607844" transform="translate(2,5)"/>
<path d="M0,0 L1,0 L1,1 L0,1 Z " fill="#010101" opacity="0.003921569" transform="translate(11,4)"/>
<path d="M0,0 L1,0 L1,1 L0,1 Z " fill="#010101" transform="translate(9,4)"/>
<path d="M0,0 L1,0 L1,1 L0,1 Z " fill="#878787" transform="translate(7,4)"/>
<path d="M0,0 L1,0 L1,1 L0,1 Z " fill="#B4B4B4" transform="translate(6,4)"/>
<path d="M0,0 L1,0 L1,1 L0,1 Z " fill="#DBDBDB" transform="translate(5,4)"/>
<path d="M0,0 L1,0 L1,1 L0,1 Z " fill="#000000" opacity="0.19607843" transform="translate(2,4)"/>
<path d="M0,0 L1,0 L1,1 L0,1 Z " fill="#000000" opacity="0.039215688" transform="translate(10,3)"/>
<path d="M0,0 L1,0 L1,1 L0,1 Z " fill="#020202" opacity="0.43137255" transform="translate(8,3)"/>
<path d="M0,0 L1,0 L1,1 L0,1 Z " fill="#0E0E0E" opacity="0.6784314" transform="translate(7,3)"/>
<path d="M0,0 L1,0 L1,1 L0,1 Z " fill="#050505" opacity="0.9843137" transform="translate(5,3)"/>
<path d="M0,0 L1,0 L1,1 L0,1 Z " fill="#232323" opacity="0.94509804" transform="translate(4,3)"/>
<path d="M0,0 L1,0 L1,1 L0,1 Z " fill="#131313" opacity="0.98039216" transform="translate(3,3)"/>
<path d="M0,0 L1,0 L1,1 L0,1 Z " fill="#000000" opacity="0.039215688" transform="translate(5,2)"/>
<path d="M0,0 L1,0 L1,1 L0,1 Z " fill="#000000" opacity="0.23137255" transform="translate(4,2)"/>
<path d="M0,0 L1,0 L1,1 L0,1 Z " fill="#020202" opacity="0.43529412" transform="translate(3,2)"/>
<path d="M0,0 L1,0 L1,1 L0,1 Z " fill="#000000" opacity="0.32941177" transform="translate(2,2)"/>
</svg>
