<?xml version="1.0" encoding="UTF-8"?>
<!-- Generator: visioncortex VTracer 0.6.4 -->
<svg version="1.1" xmlns="http://www.w3.org/2000/svg" width="16" height="16">
<path d="M0,0 L1,0 L1,1 L2,1 L2,2 L3,2 L3,4 L4,4 L4,5 L7,5 L7,10 L-7,10 L-7,6 L-6,6 L-6,5 L-4,5 L-4,4 L-3,4 L-3,3 L-2,3 L-2,2 L-1,2 L-1,1 L0,1 Z " fill="#E0E0E0" opacity="0.99607843" transform="translate(8,5)"/>
<path d="M0,0 L1,0 L1,1 L0,1 Z " fill="#E0E0E0" opacity="0.81960785" transform="translate(10,6)"/>
<path d="M0,0 L1,0 L1,1 L0,1 Z " fill="#E0E0E0" opacity="0.80784315" transform="translate(5,6)"/>
<path d="M0,0 L1,0 L1,1 L0,1 Z M-1,1 L0,1 L0,2 L-1,2 Z M-2,2 L-1,2 L-1,3 L-2,3 Z " fill="#E0E0E0" opacity="0.99607843" transform="translate(7,5)"/>
<path d="M0,0 L1,0 L1,1 L0,1 Z " fill="#E0E0E0" opacity="0.8666667" transform="translate(12,9)"/>
<path d="M0,0 L1,0 L1,1 L0,1 Z " fill="#E0E0E0" opacity="0.85882354" transform="translate(3,9)"/>
<path d="M0,0 L1,0 L1,1 L0,1 Z " fill="#E0E0E0" opacity="0.99607843" transform="translate(1,10)"/>
<path d="M0,0 L1,0 L1,1 L0,1 Z " fill="#E0E0E0" opacity="0.1882353" transform="translate(13,9)"/>
<path d="M0,0 L1,0 L1,1 L0,1 Z " fill="#E4E4E4" opacity="0.18039216" transform="translate(2,9)"/>
<path d="M0,0 L1,0 L1,1 L0,1 Z " fill="#E3E3E3" opacity="0.20784314" transform="translate(12,8)"/>
<path d="M0,0 L1,0 L1,1 L0,1 Z " fill="#E0E0E0" opacity="0.9843137" transform="translate(11,8)"/>
<path d="M0,0 L1,0 L1,1 L0,1 Z " fill="#E0E0E0" opacity="0.9843137" transform="translate(4,8)"/>
<path d="M0,0 L1,0 L1,1 L0,1 Z " fill="#E1E1E1" opacity="0.19607843" transform="translate(3,8)"/>
<path d="M0,0 L1,0 L1,1 L0,1 Z " fill="#E0E0E0" opacity="0.5176471" transform="translate(11,7)"/>
<path d="M0,0 L1,0 L1,1 L0,1 Z " fill="#E2E2E2" opacity="0.5019608" transform="translate(4,7)"/>
<path d="M0,0 L1,0 L1,1 L0,1 Z " fill="#E0E0E0" opacity="0.02745098" transform="translate(11,6)"/>
<path d="M0,0 L1,0 L1,1 L0,1 Z " fill="#E0E0E0" opacity="0.023529412" transform="translate(4,6)"/>
<path d="M0,0 L1,0 L1,1 L0,1 Z " fill="#DFDFDF" opacity="0.15294118" transform="translate(10,5)"/>
<path d="M0,0 L1,0 L1,1 L0,1 Z " fill="#E0E0E0" opacity="0.83137256" transform="translate(9,5)"/>
<path d="M0,0 L1,0 L1,1 L0,1 Z " fill="#E0E0E0" opacity="0.8235294" transform="translate(6,5)"/>
<path d="M0,0 L1,0 L1,1 L0,1 Z " fill="#E4E4E4" opacity="0.14509805" transform="translate(5,5)"/>
</svg>
