<?xml version="1.0" encoding="UTF-8"?>
<!-- Generator: visioncortex VTracer 0.6.4 -->
<svg version="1.1" xmlns="http://www.w3.org/2000/svg" width="16" height="16">
<path d="M0,0 L1,0 L1,1 L0,1 Z M2,0 L6,0 L6,4 L3,4 L3,5 L2,5 L2,6 L1,6 L1,7 L0,7 L0,8 L-1,8 L-1,7 L-2,7 L-2,6 L-1,6 L-1,5 L0,5 L0,4 L1,4 L1,3 L2,3 Z M3,5 L4,5 L4,6 L3,6 Z M5,5 L6,5 L6,6 L5,6 Z M2,6 L3,6 L3,7 L2,7 Z M1,7 L2,7 L2,8 L1,8 Z M0,8 L1,8 L1,9 L0,9 Z " fill="#090909" opacity="0.92156863" transform="translate(6,4)"/>
<path d="M0,0 L4,0 L4,4 L1,4 L1,5 L0,5 L0,6 L-1,6 L-1,7 L-2,7 L-2,8 L-3,8 L-3,7 L-4,7 L-4,6 L-3,6 L-3,5 L-2,5 L-2,4 L-1,4 L-1,3 L0,3 Z " fill="#E0E0E0" transform="translate(8,4)"/>
<path d="M0,0 L1,0 L1,1 L0,1 Z " fill="#131313" opacity="0.98039216" transform="translate(12,3)"/>
<path d="M0,0 L1,0 L1,1 L0,1 Z M-2,1 L-1,1 L-1,2 L-2,2 Z M-3,2 L-2,2 L-2,3 L-3,3 Z M-7,3 L-6,3 L-6,4 L-7,4 Z M-4,3 L-3,3 L-3,4 L-4,4 Z M-6,4 L-4,4 L-4,5 L-6,5 Z " fill="#868686" opacity="0.99215686" transform="translate(11,7)"/>
<path d="M0,0 L1,0 L1,1 L0,1 Z M-1,1 L0,1 L0,2 L-1,2 Z M-2,2 L-1,2 L-1,3 L-2,3 Z M-3,3 L-2,3 L-2,4 L-3,4 Z " fill="#000000" opacity="0.14901961" transform="translate(5,6)"/>
<path d="M0,0 L1,0 L1,1 L0,1 Z M0,2 L1,2 L1,3 L0,3 Z M-1,3 L0,3 L0,4 L-1,4 Z M-2,4 L-1,4 L-1,5 L-2,5 Z M-3,5 L-2,5 L-2,6 L-3,6 Z " fill="#090909" opacity="0.93333334" transform="translate(6,4)"/>
<path d="M0,0 L1,0 L1,1 L0,1 Z " fill="#000000" opacity="0.32941177" transform="translate(13,2)"/>
<path d="M0,0 L1,0 L1,1 L0,1 Z M-1,1 L0,1 L0,2 L-1,2 Z M-2,2 L-1,2 L-1,3 L-2,3 Z M-3,3 L-2,3 L-2,4 L-3,4 Z " fill="#000000" opacity="0.12941177" transform="translate(9,10)"/>
<path d="M0,0 L1,0 L1,1 L0,1 Z M-1,1 L0,1 L0,2 L-1,2 Z M-2,2 L-1,2 L-1,3 L-2,3 Z M-3,3 L-2,3 L-2,5 L-3,5 Z M-2,5 L-1,5 L-1,6 L-2,6 Z " fill="#8F8F8F" opacity="0.99607843" transform="translate(7,6)"/>
<path d="M0,0 L3,0 L3,1 L0,1 Z M3,1 L4,1 L4,3 L3,3 Z " fill="#D9D9D9" transform="translate(8,4)"/>
<path d="M0,0 L1,0 L1,1 L0,1 Z " fill="#000000" opacity="0.22352941" transform="translate(6,3)"/>
<path d="M0,0 L1,0 L1,1 L0,1 Z M1,1 L2,1 L2,2 L1,2 Z " fill="#000000" opacity="0.22352941" transform="translate(3,11)"/>
<path d="M0,0 L1,0 L1,1 L0,1 Z " fill="#000000" opacity="0.20392157" transform="translate(12,9)"/>
<path d="M0,0 L1,0 L1,2 L0,2 Z " fill="#4A4A4A" opacity="0.9647059" transform="translate(11,7)"/>
<path d="M0,0 L1,0 L1,1 L0,1 Z " fill="#0F0F0F" opacity="0.8666667" transform="translate(12,6)"/>
<path d="M0,0 L1,0 L1,1 L0,1 Z " fill="#0E0E0E" opacity="0.8784314" transform="translate(9,3)"/>
<path d="M0,0 L1,0 L1,1 L0,1 Z M1,1 L2,1 L2,2 L1,2 Z " fill="#A3A3A3" transform="translate(4,10)"/>
<path d="M0,0 L1,0 L1,1 L0,1 Z " fill="#444444" opacity="0.972549" transform="translate(7,5)"/>
<path d="M0,0 L1,0 L1,2 L0,2 Z " fill="#0C0C0C" opacity="0.7490196" transform="translate(6,4)"/>
<path d="M0,0 L2,0 L2,1 L0,1 Z " fill="#B1B1B1" transform="translate(8,4)"/>
<path d="M0,0 L1,0 L1,1 L0,1 Z " fill="#010101" opacity="0.6666667" transform="translate(5,4)"/>
<path d="M0,0 L1,0 L1,1 L0,1 Z " fill="#000000" opacity="0.21568628" transform="translate(11,2)"/>
<path d="M0,0 L1,0 L1,1 L0,1 Z " fill="#000000" opacity="0.21960784" transform="translate(5,13)"/>
<path d="M0,0 L1,0 L1,1 L0,1 Z " fill="#090909" opacity="0.95686275" transform="translate(5,12)"/>
<path d="M0,0 L1,0 L1,1 L0,1 Z " fill="#0A0A0A" opacity="0.95686275" transform="translate(4,11)"/>
<path d="M0,0 L1,0 L1,1 L0,1 Z " fill="#000000" opacity="0.023529412" transform="translate(12,10)"/>
<path d="M0,0 L1,0 L1,1 L0,1 Z " fill="#010101" opacity="0.64705884" transform="translate(11,10)"/>
<path d="M0,0 L1,0 L1,1 L0,1 Z " fill="#0C0C0C" opacity="0.015686275" transform="translate(10,10)"/>
<path d="M0,0 L1,0 L1,1 L0,1 Z " fill="#090909" opacity="0.95686275" transform="translate(3,10)"/>
<path d="M0,0 L1,0 L1,1 L0,1 Z " fill="#000000" opacity="0.21960784" transform="translate(2,10)"/>
<path d="M0,0 L1,0 L1,1 L0,1 Z " fill="#000000" transform="translate(11,9)"/>
<path d="M0,0 L1,0 L1,1 L0,1 Z " fill="#0C0C0C" opacity="0.7411765" transform="translate(10,9)"/>
<path d="M0,0 L1,0 L1,1 L0,1 Z " fill="#000000" opacity="0.40392157" transform="translate(12,8)"/>
<path d="M0,0 L1,0 L1,1 L0,1 Z " fill="#444444" opacity="0.96862745" transform="translate(10,8)"/>
<path d="M0,0 L1,0 L1,1 L0,1 Z " fill="#0D0D0D" opacity="0.64705884" transform="translate(12,7)"/>
<path d="M0,0 L1,0 L1,1 L0,1 Z " fill="#818181" transform="translate(11,7)"/>
<path d="M0,0 L1,0 L1,1 L0,1 Z " fill="#AFAFAF" transform="translate(11,6)"/>
<path d="M0,0 L1,0 L1,1 L0,1 Z " fill="#000000" opacity="0.02745098" transform="translate(13,5)"/>
<path d="M0,0 L1,0 L1,1 L0,1 Z " fill="#040404" opacity="0.9843137" transform="translate(12,5)"/>
<path d="M0,0 L1,0 L1,1 L0,1 Z " fill="#010101" opacity="0.015686275" transform="translate(5,5)"/>
<path d="M0,0 L1,0 L1,1 L0,1 Z " fill="#000000" opacity="0.20784314" transform="translate(13,4)"/>
<path d="M0,0 L1,0 L1,1 L0,1 Z " fill="#1E1E1E" opacity="0.94509804" transform="translate(12,4)"/>
<path d="M0,0 L1,0 L1,1 L0,1 Z " fill="#858585" transform="translate(8,4)"/>
<path d="M0,0 L1,0 L1,1 L0,1 Z " fill="#4E4E4E" opacity="0.96862745" transform="translate(7,4)"/>
<path d="M0,0 L1,0 L1,1 L0,1 Z " fill="#000000" transform="translate(6,4)"/>
<path d="M0,0 L1,0 L1,1 L0,1 Z " fill="#010101" opacity="0.003921569" transform="translate(4,4)"/>
<path d="M0,0 L1,0 L1,1 L0,1 Z " fill="#000000" opacity="0.4117647" transform="translate(13,3)"/>
<path d="M0,0 L1,0 L1,1 L0,1 Z " fill="#1F1F1F" opacity="0.94509804" transform="translate(11,3)"/>
<path d="M0,0 L1,0 L1,1 L0,1 Z " fill="#050505" opacity="0.9843137" transform="translate(10,3)"/>
<path d="M0,0 L1,0 L1,1 L0,1 Z " fill="#0F0F0F" opacity="0.6666667" transform="translate(8,3)"/>
<path d="M0,0 L1,0 L1,1 L0,1 Z " fill="#020202" opacity="0.42745098" transform="translate(7,3)"/>
<path d="M0,0 L1,0 L1,1 L0,1 Z " fill="#000000" opacity="0.039215688" transform="translate(5,3)"/>
<path d="M0,0 L1,0 L1,1 L0,1 Z " fill="#000000" opacity="0.41568628" transform="translate(12,2)"/>
<path d="M0,0 L1,0 L1,1 L0,1 Z " fill="#000000" opacity="0.03137255" transform="translate(10,2)"/>
</svg>
