<?xml version="1.0" encoding="UTF-8"?>
<!-- Generator: visioncortex VTracer 0.6.4 -->
<svg version="1.1" xmlns="http://www.w3.org/2000/svg" width="16" height="16">
<path d="M0,0 L1,0 L1,1 L0,1 Z M-1,1 L0,1 L0,2 L-1,2 Z M-2,2 L-1,2 L-1,3 L-2,3 Z M-3,3 L-2,3 L-2,4 L-3,4 Z " fill="#E0E0E0" opacity="0.99607843" transform="translate(9,6)"/>
<path d="M0,0 L1,0 L1,1 L2,1 L2,2 L1,2 L1,3 L-2,3 L-2,2 L-1,2 L-1,1 L0,1 Z " fill="#E0E0E0" opacity="0.99607843" transform="translate(6,11)"/>
<path d="M0,0 L1,0 L1,1 L0,1 Z " fill="#E0E0E0" opacity="0.8784314" transform="translate(11,2)"/>
<path d="M0,0 L1,0 L1,1 L0,1 Z " fill="#E0E0E0" opacity="0.8627451" transform="translate(9,5)"/>
<path d="M0,0 L1,0 L1,1 L0,1 Z M-1,1 L0,1 L0,2 L-1,2 Z " fill="#E0E0E0" opacity="0.99607843" transform="translate(3,8)"/>
<path d="M0,0 L2,0 L2,1 L1,1 L1,2 L0,2 L0,4 L-1,4 L-1,1 L0,1 Z " fill="#E0E0E0" opacity="0.99607843" transform="translate(3,9)"/>
<path d="M0,0 L1,0 L1,1 L0,1 Z " fill="#E0E0E0" opacity="0.9137255" transform="translate(1,11)"/>
<path d="M0,0 L1,0 L1,1 L0,1 Z " fill="#E0E0E0" opacity="0.8039216" transform="translate(13,5)"/>
<path d="M0,0 L1,0 L1,1 L0,1 Z " fill="#E0E0E0" opacity="0.827451" transform="translate(8,12)"/>
<path d="M0,0 L1,0 L1,1 L0,1 Z " fill="#E1E1E1" opacity="0.5921569" transform="translate(6,8)"/>
<path d="M0,0 L1,0 L1,1 L0,1 Z " fill="#E0E0E0" opacity="0.7764706" transform="translate(3,7)"/>
<path d="M0,0 L1,0 L1,1 L0,1 Z M-2,1 L0,1 L0,2 L-2,2 Z " fill="#E0E0E0" opacity="0.99607843" transform="translate(4,12)"/>
<path d="M0,0 L1,0 L1,1 L0,1 Z " fill="#E0E0E0" opacity="0.6117647" transform="translate(4,11)"/>
<path d="M0,0 L1,0 L1,1 L0,1 Z " fill="#E0E0E0" opacity="0.92156863" transform="translate(11,6)"/>
<path d="M0,0 L1,0 L1,1 L0,1 Z " fill="#DFDFDF" opacity="0.42745098" transform="translate(12,5)"/>
<path d="M0,0 L1,0 L1,1 L0,1 Z " fill="#E0E0E0" opacity="0.7882353" transform="translate(13,3)"/>
<path d="M0,0 L1,0 L1,1 L0,1 Z " fill="#E1E1E1" opacity="0.84313726" transform="translate(9,3)"/>
<path d="M0,0 L1,0 L1,1 L0,1 Z " fill="#E1E1E1" opacity="0.043137256" transform="translate(7,14)"/>
<path d="M0,0 L1,0 L1,1 L0,1 Z " fill="#E0E0E0" opacity="0.7882353" transform="translate(3,14)"/>
<path d="M0,0 L1,0 L1,1 L0,1 Z " fill="#E0E0E0" opacity="0.99215686" transform="translate(3,12)"/>
<path d="M0,0 L1,0 L1,1 L0,1 Z " fill="#DFDFDF" opacity="0.42745098" transform="translate(1,9)"/>
<path d="M0,0 L1,0 L1,1 L0,1 Z M-1,1 L0,1 L0,2 L-1,2 Z " fill="#E0E0E0" opacity="0.02745098" transform="translate(10,7)"/>
<path d="M0,0 L1,0 L1,1 L0,1 Z " fill="#E0E0E0" opacity="0.5803922" transform="translate(7,7)"/>
<path d="M0,0 L1,0 L1,1 L0,1 Z " fill="#E0E0E0" opacity="0.5176471" transform="translate(10,4)"/>
<path d="M0,0 L1,0 L1,1 L0,1 Z " fill="#E0E0E0" opacity="0.8352941" transform="translate(12,3)"/>
<path d="M0,0 L1,0 L1,1 L0,1 Z " fill="#E1E1E1" opacity="0.53333336" transform="translate(10,1)"/>
<path d="M0,0 L1,0 L1,1 L0,1 Z " fill="#E0E0E0" opacity="0.41568628" transform="translate(6,14)"/>
<path d="M0,0 L1,0 L1,1 L0,1 Z " fill="#E1E1E1" opacity="0.74509805" transform="translate(5,14)"/>
<path d="M0,0 L1,0 L1,1 L0,1 Z " fill="#E0E0E0" opacity="0.8784314" transform="translate(4,14)"/>
<path d="M0,0 L1,0 L1,1 L0,1 Z " fill="#DFDFDF" opacity="0.34117648" transform="translate(2,14)"/>
<path d="M0,0 L1,0 L1,1 L0,1 Z " fill="#E0E0E0" opacity="0.1882353" transform="translate(8,13)"/>
<path d="M0,0 L1,0 L1,1 L0,1 Z " fill="#E1E1E1" opacity="0.84313726" transform="translate(7,13)"/>
<path d="M0,0 L1,0 L1,1 L0,1 Z " fill="#DFDFDF" opacity="0.36862746" transform="translate(1,13)"/>
<path d="M0,0 L1,0 L1,1 L0,1 Z " fill="#E0E0E0" opacity="0.019607844" transform="translate(9,12)"/>
<path d="M0,0 L1,0 L1,1 L0,1 Z " fill="#E0E0E0" opacity="0.8235294" transform="translate(1,12)"/>
<path d="M0,0 L1,0 L1,1 L0,1 Z " fill="#E2E2E2" opacity="0.101960786" transform="translate(8,11)"/>
<path d="M0,0 L1,0 L1,1 L0,1 Z " fill="#E1E1E1" opacity="0.84705883" transform="translate(7,11)"/>
<path d="M0,0 L1,0 L1,1 L0,1 Z " fill="#E0E0E0" opacity="0.9843137" transform="translate(5,11)"/>
<path d="M0,0 L1,0 L1,1 L0,1 Z " fill="#E0E0E0" opacity="0.96862745" transform="translate(3,11)"/>
<path d="M0,0 L1,0 L1,1 L0,1 Z " fill="#E7E7E7" opacity="0.12156863" transform="translate(7,10)"/>
<path d="M0,0 L1,0 L1,1 L0,1 Z " fill="#E0E0E0" opacity="0.93333334" transform="translate(6,10)"/>
<path d="M0,0 L1,0 L1,1 L0,1 Z " fill="#E3E3E3" opacity="0.24313726" transform="translate(5,10)"/>
<path d="M0,0 L1,0 L1,1 L0,1 Z " fill="#E0E0E0" opacity="0.73333335" transform="translate(4,10)"/>
<path d="M0,0 L1,0 L1,1 L0,1 Z " fill="#E0E0E0" opacity="0.76862746" transform="translate(1,10)"/>
<path d="M0,0 L1,0 L1,1 L0,1 Z " fill="#E0E0E0" opacity="0.023529412" transform="translate(8,9)"/>
<path d="M0,0 L1,0 L1,1 L0,1 Z " fill="#E1E1E1" opacity="0.69411767" transform="translate(7,9)"/>
<path d="M0,0 L1,0 L1,1 L0,1 Z " fill="#E0E0E0" opacity="0.69803923" transform="translate(5,9)"/>
<path d="M0,0 L1,0 L1,1 L0,1 Z " fill="#E0E0E0" opacity="0.7019608" transform="translate(8,8)"/>
<path d="M0,0 L1,0 L1,1 L0,1 Z " fill="#E9E9E9" opacity="0.09019608" transform="translate(5,8)"/>
<path d="M0,0 L1,0 L1,1 L0,1 Z " fill="#E0E0E0" opacity="0.827451" transform="translate(4,8)"/>
<path d="M0,0 L1,0 L1,1 L0,1 Z " fill="#E0E0E0" opacity="0.8235294" transform="translate(2,8)"/>
<path d="M0,0 L1,0 L1,1 L0,1 Z " fill="#E0E0E0" opacity="0.03529412" transform="translate(1,8)"/>
<path d="M0,0 L1,0 L1,1 L0,1 Z " fill="#E0E0E0" opacity="0.70980394" transform="translate(9,7)"/>
<path d="M0,0 L1,0 L1,1 L0,1 Z " fill="#E0E0E0" opacity="0.003921569" transform="translate(6,7)"/>
<path d="M0,0 L1,0 L1,1 L0,1 Z " fill="#E7E7E7" opacity="0.08235294" transform="translate(4,7)"/>
<path d="M0,0 L1,0 L1,1 L0,1 Z " fill="#E0E0E0" opacity="0.15686275" transform="translate(2,7)"/>
<path d="M0,0 L1,0 L1,1 L0,1 Z " fill="#E0E0E0" opacity="0.12941177" transform="translate(14,6)"/>
<path d="M0,0 L1,0 L1,1 L0,1 Z " fill="#E1E1E1" opacity="0.78039217" transform="translate(13,6)"/>
<path d="M0,0 L1,0 L1,1 L0,1 Z " fill="#E0E0E0" opacity="0.92156863" transform="translate(12,6)"/>
<path d="M0,0 L1,0 L1,1 L0,1 Z " fill="#E0E0E0" opacity="0.9411765" transform="translate(10,6)"/>
<path d="M0,0 L1,0 L1,1 L0,1 Z " fill="#E1E1E1" opacity="0.5647059" transform="translate(8,6)"/>
<path d="M0,0 L1,0 L1,1 L0,1 Z " fill="#E0E0E0" opacity="0.003921569" transform="translate(3,6)"/>
<path d="M0,0 L1,0 L1,1 L0,1 Z " fill="#E0E0E0" opacity="0.7411765" transform="translate(14,5)"/>
<path d="M0,0 L1,0 L1,1 L0,1 Z " fill="#E0E0E0" opacity="0.41568628" transform="translate(11,5)"/>
<path d="M0,0 L1,0 L1,1 L0,1 Z " fill="#E0E0E0" opacity="0.70980394" transform="translate(10,5)"/>
<path d="M0,0 L1,0 L1,1 L0,1 Z " fill="#E1E1E1" opacity="0.78431374" transform="translate(14,4)"/>
<path d="M0,0 L1,0 L1,1 L0,1 Z " fill="#E0E0E0" opacity="0.8392157" transform="translate(13,4)"/>
<path d="M0,0 L1,0 L1,1 L0,1 Z " fill="#E0E0E0" opacity="0.09411765" transform="translate(12,4)"/>
<path d="M0,0 L1,0 L1,1 L0,1 Z " fill="#E1E1E1" opacity="0.84313726" transform="translate(9,4)"/>
<path d="M0,0 L1,0 L1,1 L0,1 Z " fill="#E0E0E0" opacity="0.0627451" transform="translate(14,3)"/>
<path d="M0,0 L1,0 L1,1 L0,1 Z " fill="#E9E9E9" opacity="0.09019608" transform="translate(11,3)"/>
<path d="M0,0 L1,0 L1,1 L0,1 Z " fill="#E1E1E1" opacity="0.5529412" transform="translate(10,3)"/>
<path d="M0,0 L1,0 L1,1 L0,1 Z " fill="#E0E0E0" opacity="0.05490196" transform="translate(13,2)"/>
<path d="M0,0 L1,0 L1,1 L0,1 Z " fill="#E0E0E0" opacity="0.77254903" transform="translate(12,2)"/>
<path d="M0,0 L1,0 L1,1 L0,1 Z " fill="#E0E0E0" opacity="0.9529412" transform="translate(10,2)"/>
<path d="M0,0 L1,0 L1,1 L0,1 Z " fill="#E1E1E1" opacity="0.58431375" transform="translate(9,2)"/>
<path d="M0,0 L1,0 L1,1 L0,1 Z " fill="#E0E0E0" opacity="0.050980393" transform="translate(12,1)"/>
<path d="M0,0 L1,0 L1,1 L0,1 Z " fill="#E0E0E0" opacity="0.67058825" transform="translate(11,1)"/>
<path d="M0,0 L1,0 L1,1 L0,1 Z " fill="#E1E1E1" opacity="0.03529412" transform="translate(9,1)"/>
</svg>
