<?xml version="1.0" encoding="UTF-8"?>
<!-- Generator: visioncortex VTracer 0.6.4 -->
<svg version="1.1" xmlns="http://www.w3.org/2000/svg" width="16" height="16">
<path d="M0,0 L1,0 L1,2 L7,2 L7,6 L1,6 L1,8 L0,8 L0,6 L-2,6 L-2,5 L-3,5 L-3,3 L-2,3 L-2,2 L0,2 Z M-4,5 L-3,5 L-3,6 L-4,6 Z " fill="#0C0C0C" opacity="0.6392157" transform="translate(7,4)"/>
<path d="M0,0 L1,0 L1,1 L7,1 L7,5 L-2,5 L-2,4 L-3,4 L-3,2 L-2,2 L-2,1 L0,1 Z " fill="#E0E0E0" transform="translate(7,5)"/>
<path d="M0,0 L1,0 L1,1 L0,1 Z M7,5 L8,5 L8,6 L7,6 Z M5,6 L7,6 L7,7 L5,7 Z " fill="#000000" opacity="0.5019608" transform="translate(7,4)"/>
<path d="M0,0 L6,0 L6,4 L0,4 L0,3 L5,3 L5,1 L0,1 Z " fill="#707070" transform="translate(8,6)"/>
<path d="M0,0 L2,0 L2,1 L0,1 Z M2,1 L3,1 L3,2 L2,2 Z " fill="#000000" opacity="0.5019608" transform="translate(7,4)"/>
<path d="M0,0 L1,0 L1,1 L2,1 L2,2 L0,2 Z M2,0 L3,0 L3,1 L2,1 Z " fill="#000000" opacity="0.5019608" transform="translate(7,10)"/>
<path d="M0,0 L1,0 L1,1 L0,1 Z " fill="#090909" opacity="0.9254902" transform="translate(5,5)"/>
<path d="M0,0 L1,0 L1,2 L-1,2 L-1,3 L-2,3 L-2,1 L0,1 Z " fill="#E0E0E0" transform="translate(7,5)"/>
<path d="M0,0 L1,0 L1,1 L0,1 Z " fill="#090909" opacity="0.92156863" transform="translate(2,8)"/>
<path d="M0,0 L4,0 L4,1 L0,1 Z " fill="#707070" transform="translate(8,6)"/>
<path d="M0,0 L3,0 L3,1 L0,1 Z " fill="#707070" transform="translate(8,9)"/>
<path d="M0,0 L2,0 L2,2 L1,2 L1,1 L0,1 Z " fill="#707070" transform="translate(12,6)"/>
<path d="M0,0 L1,0 L1,1 L0,1 Z M1,1 L2,1 L2,2 L1,2 Z " fill="#000000" opacity="0.5019608" transform="translate(13,5)"/>
<path d="M0,0 L3,0 L3,1 L0,1 Z " fill="#000000" opacity="0.5019608" transform="translate(10,5)"/>
<path d="M0,0 L1,0 L1,1 L0,1 Z " fill="#000000" opacity="0.38431373" transform="translate(8,12)"/>
<path d="M0,0 L2,0 L2,1 L0,1 Z " fill="#000000" opacity="0.5019608" transform="translate(10,10)"/>
<path d="M0,0 L1,0 L1,1 L0,1 Z " fill="#636363" transform="translate(7,10)"/>
<path d="M0,0 L1,0 L1,2 L0,2 Z " fill="#000000" opacity="0.5019608" transform="translate(14,7)"/>
<path d="M0,0 L1,0 L1,2 L0,2 Z " fill="#D3D3D3" transform="translate(4,7)"/>
<path d="M0,0 L1,0 L1,1 L0,1 Z " fill="#535353" opacity="0.96862745" transform="translate(3,8)"/>
<path d="M0,0 L1,0 L1,1 L0,1 Z " fill="#000000" opacity="0.27058825" transform="translate(1,8)"/>
<path d="M0,0 L1,0 L1,1 L0,1 Z " fill="#0C0C0C" opacity="0.6431373" transform="translate(3,6)"/>
<path d="M0,0 L1,0 L1,1 L0,1 Z " fill="#646464" transform="translate(7,5)"/>
<path d="M0,0 L1,0 L1,1 L0,1 Z " fill="#0C0C0C" opacity="0.6431373" transform="translate(6,4)"/>
<path d="M0,0 L1,0 L1,1 L0,1 Z " fill="#000000" opacity="0.38431373" transform="translate(8,3)"/>
<path d="M0,0 L1,0 L1,1 L0,1 Z " fill="#000000" opacity="0.27450982" transform="translate(7,12)"/>
<path d="M0,0 L1,0 L1,1 L0,1 Z " fill="#010101" transform="translate(7,11)"/>
<path d="M0,0 L1,0 L1,1 L0,1 Z " fill="#0C0C0C" opacity="0.6392157" transform="translate(6,11)"/>
<path d="M0,0 L1,0 L1,1 L0,1 Z " fill="#090909" opacity="0.05490196" transform="translate(5,11)"/>
<path d="M0,0 L1,0 L1,1 L0,1 Z " fill="#000000" opacity="0.2509804" transform="translate(14,10)"/>
<path d="M0,0 L1,0 L1,1 L0,1 Z " fill="#000000" opacity="0.7529412" transform="translate(8,10)"/>
<path d="M0,0 L1,0 L1,1 L0,1 Z " fill="#535353" opacity="0.96862745" transform="translate(6,10)"/>
<path d="M0,0 L1,0 L1,1 L0,1 Z " fill="#090909" opacity="0.92156863" transform="translate(5,10)"/>
<path d="M0,0 L1,0 L1,1 L0,1 Z " fill="#000000" opacity="0.27450982" transform="translate(4,10)"/>
<path d="M0,0 L1,0 L1,1 L0,1 Z " fill="#383838" transform="translate(13,9)"/>
<path d="M0,0 L1,0 L1,1 L0,1 Z " fill="#A8A8A8" transform="translate(7,9)"/>
<path d="M0,0 L1,0 L1,1 L0,1 Z " fill="#A3A3A3" transform="translate(5,9)"/>
<path d="M0,0 L1,0 L1,1 L0,1 Z " fill="#121212" opacity="0.9647059" transform="translate(4,9)"/>
<path d="M0,0 L1,0 L1,1 L0,1 Z " fill="#090909" opacity="0.05490196" transform="translate(2,9)"/>
<path d="M0,0 L1,0 L1,1 L0,1 Z " fill="#D4D4D4" transform="translate(4,7)"/>
<path d="M0,0 L1,0 L1,1 L0,1 Z " fill="#545454" opacity="0.96862745" transform="translate(3,7)"/>
<path d="M0,0 L1,0 L1,1 L0,1 Z " fill="#090909" opacity="0.9254902" transform="translate(2,7)"/>
<path d="M0,0 L1,0 L1,1 L0,1 Z " fill="#000000" opacity="0.27450982" transform="translate(1,7)"/>
<path d="M0,0 L1,0 L1,1 L0,1 Z " fill="#383838" transform="translate(13,6)"/>
<path d="M0,0 L1,0 L1,1 L0,1 Z " fill="#A8A8A8" transform="translate(7,6)"/>
<path d="M0,0 L1,0 L1,1 L0,1 Z " fill="#A3A3A3" transform="translate(5,6)"/>
<path d="M0,0 L1,0 L1,1 L0,1 Z " fill="#131313" opacity="0.9607843" transform="translate(4,6)"/>
<path d="M0,0 L1,0 L1,1 L0,1 Z " fill="#0C0C0C" opacity="0.05490196" transform="translate(2,6)"/>
<path d="M0,0 L1,0 L1,1 L0,1 Z " fill="#000000" opacity="0.2509804" transform="translate(14,5)"/>
<path d="M0,0 L1,0 L1,1 L0,1 Z " fill="#000000" opacity="0.7529412" transform="translate(8,5)"/>
<path d="M0,0 L1,0 L1,1 L0,1 Z " fill="#545454" opacity="0.96862745" transform="translate(6,5)"/>
<path d="M0,0 L1,0 L1,1 L0,1 Z " fill="#000000" opacity="0.27450982" transform="translate(4,5)"/>
<path d="M0,0 L1,0 L1,1 L0,1 Z " fill="#010101" transform="translate(7,4)"/>
<path d="M0,0 L1,0 L1,1 L0,1 Z " fill="#0C0C0C" opacity="0.05490196" transform="translate(5,4)"/>
<path d="M0,0 L1,0 L1,1 L0,1 Z " fill="#000000" opacity="0.27450982" transform="translate(7,3)"/>
</svg>
