<?xml version="1.0" encoding="UTF-8"?>
<!-- Generator: visioncortex VTracer 0.6.4 -->
<svg version="1.1" xmlns="http://www.w3.org/2000/svg" width="16" height="16">
<path d="M0,0 L7,0 L7,1 L8,1 L8,2 L9,2 L9,10 L8,10 L8,11 L7,11 L7,12 L-1,12 L-1,11 L-2,11 L-2,10 L-3,10 L-3,3 L-2,3 L-2,2 L-1,2 L-1,1 L0,1 Z " fill="#E0E0E0" opacity="0.99607843" transform="translate(5,2)"/>
<path d="M0,0 L1,0 L1,1 L0,1 Z M-1,1 L0,1 L0,2 L-1,2 Z M-2,2 L-1,2 L-1,3 L-2,3 Z " fill="#E0E0E0" opacity="0.99607843" transform="translate(4,2)"/>
<path d="M0,0 L1,0 L1,1 L0,1 Z M-1,1 L0,1 L0,2 L-1,2 Z " fill="#E0E0E0" opacity="0.8666667" transform="translate(13,12)"/>
<path d="M0,0 L1,0 L1,1 L0,1 Z M1,1 L2,1 L2,2 L1,2 Z " fill="#E0E0E0" opacity="0.8666667" transform="translate(2,12)"/>
<path d="M0,0 L1,0 L1,1 L0,1 Z M1,1 L2,1 L2,2 L1,2 Z " fill="#E0E0E0" opacity="0.8666667" transform="translate(12,2)"/>
<path d="M0,0 L1,0 L1,1 L0,1 Z M-1,1 L0,1 L0,2 L-1,2 Z " fill="#E0E0E0" opacity="0.8666667" transform="translate(3,2)"/>
<path d="M0,0 L1,0 L1,1 L0,1 Z " fill="#E3E3E3" opacity="0.24313726" transform="translate(13,13)"/>
<path d="M0,0 L1,0 L1,1 L0,1 Z " fill="#E3E3E3" opacity="0.24313726" transform="translate(2,13)"/>
<path d="M0,0 L1,0 L1,1 L0,1 Z " fill="#E3E3E3" opacity="0.24313726" transform="translate(13,2)"/>
<path d="M0,0 L1,0 L1,1 L0,1 Z " fill="#E3E3E3" opacity="0.24313726" transform="translate(2,2)"/>
</svg>
