<?xml version="1.0" encoding="UTF-8"?>
<!-- Generator: visioncortex VTracer 0.6.4 -->
<svg version="1.1" xmlns="http://www.w3.org/2000/svg" width="16" height="16">
<path d="M0,0 L12,0 L12,12 L0,12 Z " fill="#E0E0E0" transform="translate(2,2)"/>
<path d="M0,0 L1,0 L1,10 L0,10 Z " fill="#000000" opacity="0.5019608" transform="translate(1,3)"/>
<path d="M0,0 L12,0 L12,12 L0,12 Z M1,1 L1,11 L11,11 L11,1 Z " fill="#707070" transform="translate(2,2)"/>
<path d="M0,0 L1,0 L1,10 L-9,10 L-9,9 L0,9 Z " fill="#707070" transform="translate(13,4)"/>
<path d="M0,0 L10,0 L10,1 L0,1 Z " fill="#000000" opacity="0.5019608" transform="translate(3,1)"/>
<path d="M0,0 L1,0 L1,10 L0,10 Z " fill="#000000" opacity="0.5019608" transform="translate(14,3)"/>
<path d="M0,0 L1,0 L1,9 L2,9 L2,10 L0,10 Z " fill="#707070" transform="translate(2,4)"/>
<path d="M0,0 L9,0 L9,1 L0,1 Z " fill="#000000" opacity="0.5019608" transform="translate(3,14)"/>
<path d="M0,0 L7,0 L7,1 L0,1 Z " fill="#707070" transform="translate(4,13)"/>
<path d="M0,0 L1,0 L1,1 L0,1 Z M-2,1 L0,1 L0,2 L-2,2 Z " fill="#000000" opacity="0.5019608" transform="translate(14,13)"/>
<path d="M0,0 L1,0 L1,2 L-2,2 L-2,1 L0,1 Z " fill="#707070" transform="translate(13,12)"/>
<path d="M0,0 L1,0 L1,1 L0,1 Z M1,1 L2,1 L2,2 L1,2 Z " fill="#000000" opacity="0.5019608" transform="translate(1,13)"/>
<path d="M0,0 L1,0 L1,1 L2,1 L2,2 L0,2 Z " fill="#707070" transform="translate(2,12)"/>
<path d="M0,0 L2,0 L2,2 L1,2 L1,1 L0,1 Z " fill="#707070" transform="translate(12,2)"/>
<path d="M0,0 L2,0 L2,1 L1,1 L1,2 L0,2 Z " fill="#707070" transform="translate(2,2)"/>
<path d="M0,0 L1,0 L1,1 L0,1 Z M1,1 L2,1 L2,2 L1,2 Z " fill="#000000" opacity="0.5019608" transform="translate(13,1)"/>
<path d="M0,0 L1,0 L1,1 L0,1 Z M-1,1 L0,1 L0,2 L-1,2 Z " fill="#000000" opacity="0.5019608" transform="translate(2,1)"/>
<path d="M0,0 L1,0 L1,1 L0,1 Z " fill="#000000" opacity="0.2509804" transform="translate(14,14)"/>
<path d="M0,0 L1,0 L1,1 L0,1 Z " fill="#000000" opacity="0.2509804" transform="translate(1,14)"/>
<path d="M0,0 L1,0 L1,1 L0,1 Z " fill="#383838" transform="translate(13,13)"/>
<path d="M0,0 L1,0 L1,1 L0,1 Z " fill="#383838" transform="translate(2,13)"/>
<path d="M0,0 L1,0 L1,1 L0,1 Z " fill="#383838" transform="translate(13,2)"/>
<path d="M0,0 L1,0 L1,1 L0,1 Z " fill="#383838" transform="translate(2,2)"/>
<path d="M0,0 L1,0 L1,1 L0,1 Z " fill="#000000" opacity="0.2509804" transform="translate(14,1)"/>
<path d="M0,0 L1,0 L1,1 L0,1 Z " fill="#000000" opacity="0.2509804" transform="translate(1,1)"/>
</svg>
