<?xml version="1.0" encoding="UTF-8"?>
<!-- Generator: visioncortex VTracer 0.6.4 -->
<svg version="1.1" xmlns="http://www.w3.org/2000/svg" width="16" height="16">
<path d="M0,0 L5,0 L5,1 L6,1 L6,2 L7,2 L7,6 L6,6 L6,7 L5,7 L5,8 L0,8 L0,7 L-1,7 L-1,1 L0,1 Z M7,6 L8,6 L8,7 L7,7 Z " fill="#090C11" opacity="0.81960785" transform="translate(5,4)"/>
<path d="M0,0 L5,0 L5,1 L6,1 L6,2 L7,2 L7,6 L6,6 L6,7 L5,7 L5,8 L0,8 L0,7 L-1,7 L-1,1 L0,1 Z " fill="#8EB3F3" transform="translate(5,4)"/>
<path d="M0,0 L1,0 L1,1 L0,1 Z M-1,1 L0,1 L0,2 L-1,2 Z " fill="#000000" opacity="0.18431373" transform="translate(4,3)"/>
<path d="M0,0 L1,0 L1,1 L0,1 Z " fill="#000000" opacity="0.3764706" transform="translate(8,13)"/>
<path d="M0,0 L1,0 L1,1 L0,1 Z " fill="#000000" opacity="0.36078432" transform="translate(13,8)"/>
<path d="M0,0 L1,0 L1,2 L0,2 Z " fill="#020202" opacity="0.40784314" transform="translate(2,7)"/>
<path d="M0,0 L1,0 L1,1 L0,1 Z " fill="#000000" opacity="0.3882353" transform="translate(8,2)"/>
<path d="M0,0 L1,0 L1,1 L0,1 Z " fill="#07090C" opacity="0.9529412" transform="translate(4,11)"/>
<path d="M0,0 L1,0 L1,1 L0,1 Z " fill="#07080B" opacity="0.9529412" transform="translate(11,4)"/>
<path d="M0,0 L2,0 L2,1 L1,1 L1,2 L0,2 L0,3 L-1,3 L-1,1 L0,1 Z " fill="#8EB3F3" transform="translate(5,4)"/>
<path d="M0,0 L1,0 L1,1 L0,1 Z " fill="#090C0F" opacity="0.827451" transform="translate(10,12)"/>
<path d="M0,0 L1,0 L1,1 L0,1 Z " fill="#090A0E" opacity="0.85882354" transform="translate(3,10)"/>
<path d="M0,0 L1,0 L1,1 L0,1 Z " fill="#080A0E" opacity="0.84705883" transform="translate(10,3)"/>
<path d="M0,0 L1,0 L1,1 L0,1 Z " fill="#000000" opacity="0.14901961" transform="translate(11,12)"/>
<path d="M0,0 L1,0 L1,1 L0,1 Z " fill="#000000" opacity="0.16862746" transform="translate(6,13)"/>
<path d="M0,0 L1,0 L1,1 L0,1 Z " fill="#36435B" opacity="0.9607843" transform="translate(8,12)"/>
<path d="M0,0 L1,0 L1,1 L0,1 Z " fill="#151B24" opacity="0.9411765" transform="translate(6,12)"/>
<path d="M0,0 L1,0 L1,1 L0,1 Z " fill="#000000" opacity="0.003921569" transform="translate(13,10)"/>
<path d="M0,0 L1,0 L1,1 L0,1 Z M1,1 L2,1 L2,2 L1,2 Z " fill="#5F77A2" transform="translate(4,10)"/>
<path d="M0,0 L1,0 L1,1 L0,1 Z " fill="#000000" opacity="0.015686275" transform="translate(2,10)"/>
<path d="M0,0 L1,0 L1,2 L0,2 Z " fill="#344258" opacity="0.95686275" transform="translate(12,7)"/>
<path d="M0,0 L1,0 L1,1 L0,1 Z " fill="#3A4862" opacity="0.9647059" transform="translate(3,8)"/>
<path d="M0,0 L1,0 L1,1 L0,1 Z " fill="#000000" opacity="0.16470589" transform="translate(13,6)"/>
<path d="M0,0 L1,0 L1,1 L0,1 Z " fill="#11171E" opacity="0.9490196" transform="translate(12,6)"/>
<path d="M0,0 L1,0 L1,1 L0,1 Z " fill="#171D28" opacity="0.9411765" transform="translate(3,6)"/>
<path d="M0,0 L1,0 L1,1 L0,1 Z " fill="#000000" opacity="0.20784314" transform="translate(2,6)"/>
<path d="M0,0 L1,0 L1,1 L0,1 Z M-1,1 L0,1 L0,2 L-1,2 Z " fill="#617AA6" transform="translate(5,4)"/>
<path d="M0,0 L1,0 L1,1 L0,1 Z " fill="#384760" opacity="0.9607843" transform="translate(8,3)"/>
<path d="M0,0 L1,0 L1,1 L0,1 Z " fill="#171D27" opacity="0.9372549" transform="translate(6,3)"/>
<path d="M0,0 L1,0 L1,1 L0,1 Z " fill="#000000" opacity="0.011764706" transform="translate(10,2)"/>
<path d="M0,0 L1,0 L1,1 L0,1 Z " fill="#000000" opacity="0.20392157" transform="translate(6,2)"/>
<path d="M0,0 L1,0 L1,1 L0,1 Z " fill="#090C0F" opacity="0.003921569" transform="translate(10,13)"/>
<path d="M0,0 L1,0 L1,1 L0,1 Z " fill="#000000" opacity="0.16862746" transform="translate(9,13)"/>
<path d="M0,0 L1,0 L1,1 L0,1 Z " fill="#000000" opacity="0.38039216" transform="translate(7,13)"/>
<path d="M0,0 L1,0 L1,1 L0,1 Z " fill="#090B0F" opacity="0.007843138" transform="translate(5,13)"/>
<path d="M0,0 L1,0 L1,1 L0,1 Z " fill="#13171F" opacity="0.9490196" transform="translate(9,12)"/>
<path d="M0,0 L1,0 L1,1 L0,1 Z " fill="#384760" opacity="0.9607843" transform="translate(7,12)"/>
<path d="M0,0 L1,0 L1,1 L0,1 Z " fill="#090B0F" opacity="0.84313726" transform="translate(5,12)"/>
<path d="M0,0 L1,0 L1,1 L0,1 Z " fill="#000000" opacity="0.16470589" transform="translate(4,12)"/>
<path d="M0,0 L1,0 L1,1 L0,1 Z " fill="#000000" opacity="0.14509805" transform="translate(12,11)"/>
<path d="M0,0 L1,0 L1,1 L0,1 Z " fill="#07090C" opacity="0.9490196" transform="translate(11,11)"/>
<path d="M0,0 L1,0 L1,1 L0,1 Z " fill="#59709A" opacity="0.99607843" transform="translate(10,11)"/>
<path d="M0,0 L1,0 L1,1 L0,1 Z " fill="#000000" opacity="0.17254902" transform="translate(3,11)"/>
<path d="M0,0 L1,0 L1,1 L0,1 Z " fill="#597099" opacity="0.99607843" transform="translate(11,10)"/>
<path d="M0,0 L1,0 L1,1 L0,1 Z " fill="#000000" opacity="0.14901961" transform="translate(13,9)"/>
<path d="M0,0 L1,0 L1,1 L0,1 Z " fill="#12161E" opacity="0.94509804" transform="translate(12,9)"/>
<path d="M0,0 L1,0 L1,1 L0,1 Z " fill="#161C26" opacity="0.9411765" transform="translate(3,9)"/>
<path d="M0,0 L1,0 L1,1 L0,1 Z " fill="#000000" opacity="0.20392157" transform="translate(2,9)"/>
<path d="M0,0 L1,0 L1,1 L0,1 Z " fill="#000000" opacity="0.3647059" transform="translate(13,7)"/>
<path d="M0,0 L1,0 L1,1 L0,1 Z " fill="#3B4964" opacity="0.9647059" transform="translate(3,7)"/>
<path d="M0,0 L1,0 L1,1 L0,1 Z " fill="#080A0F" opacity="0.007843138" transform="translate(13,5)"/>
<path d="M0,0 L1,0 L1,1 L0,1 Z " fill="#080A0F" opacity="0.8392157" transform="translate(12,5)"/>
<path d="M0,0 L1,0 L1,1 L0,1 Z " fill="#5A729C" opacity="0.99607843" transform="translate(11,5)"/>
<path d="M0,0 L1,0 L1,1 L0,1 Z " fill="#080A0D" opacity="0.8666667" transform="translate(3,5)"/>
<path d="M0,0 L1,0 L1,1 L0,1 Z " fill="#080A0D" opacity="0.015686275" transform="translate(2,5)"/>
<path d="M0,0 L1,0 L1,1 L0,1 Z " fill="#000000" opacity="0.15686275" transform="translate(12,4)"/>
<path d="M0,0 L1,0 L1,1 L0,1 Z " fill="#5D75A0" opacity="0.99607843" transform="translate(10,4)"/>
<path d="M0,0 L1,0 L1,1 L0,1 Z " fill="#07090C" opacity="0.9529412" transform="translate(4,4)"/>
<path d="M0,0 L1,0 L1,1 L0,1 Z " fill="#000000" opacity="0.16470589" transform="translate(11,3)"/>
<path d="M0,0 L1,0 L1,1 L0,1 Z " fill="#151B24" opacity="0.9411765" transform="translate(9,3)"/>
<path d="M0,0 L1,0 L1,1 L0,1 Z " fill="#384861" opacity="0.9607843" transform="translate(7,3)"/>
<path d="M0,0 L1,0 L1,1 L0,1 Z " fill="#080A0D" opacity="0.8666667" transform="translate(5,3)"/>
<path d="M0,0 L1,0 L1,1 L0,1 Z " fill="#000000" opacity="0.19607843" transform="translate(9,2)"/>
<path d="M0,0 L1,0 L1,1 L0,1 Z " fill="#000000" opacity="0.39215687" transform="translate(7,2)"/>
<path d="M0,0 L1,0 L1,1 L0,1 Z " fill="#000000" opacity="0.015686275" transform="translate(5,2)"/>
</svg>
