<?xml version="1.0" encoding="UTF-8"?>
<!-- Generator: visioncortex VTracer 0.6.4 -->
<svg version="1.1" xmlns="http://www.w3.org/2000/svg" width="16" height="16">
<path d="M0,0 L2,0 L2,2 L3,2 L3,4 L5,4 L5,3 L7,3 L7,4 L8,4 L8,5 L9,5 L9,6 L10,6 L10,7 L11,7 L11,11 L-3,11 L-3,5 L-2,5 L-2,4 L-1,4 L-1,2 L0,2 Z " fill="#FC9C9C" opacity="0.99607843" transform="translate(4,4)"/>
<path d="M0,0 L1,0 L1,1 L0,1 Z M1,1 L2,1 L2,2 L1,2 Z M2,2 L3,2 L3,3 L2,3 Z M3,3 L4,3 L4,4 L3,4 Z M4,4 L5,4 L5,5 L4,5 Z " fill="#FE9E9E" opacity="0.5019608" transform="translate(10,6)"/>
<path d="M0,0 L1,0 L1,1 L0,1 Z " fill="#FD9C9C" opacity="0.7490196" transform="translate(5,3)"/>
<path d="M0,0 L1,0 L1,1 L0,1 Z " fill="#FD9C9C" opacity="0.7490196" transform="translate(7,7)"/>
<path d="M0,0 L1,0 L1,1 L0,1 Z " fill="#FD9C9C" opacity="0.7137255" transform="translate(1,8)"/>
<path d="M0,0 L1,0 L1,1 L0,1 Z M-1,1 L0,1 L0,2 L-1,2 Z " fill="#FD9D9D" opacity="0.49803922" transform="translate(9,6)"/>
<path d="M0,0 L1,0 L1,1 L0,1 Z " fill="#FE9D9D" opacity="0.57254905" transform="translate(2,6)"/>
<path d="M0,0 L1,0 L1,1 L0,1 Z " fill="#FD9C9C" opacity="0.7490196" transform="translate(6,5)"/>
<path d="M0,0 L1,0 L1,1 L0,1 Z " fill="#FB9B9B" opacity="0.43137255" transform="translate(3,4)"/>
<path d="M0,0 L1,0 L1,1 L0,1 Z " fill="#FC9C9C" opacity="0.2509804" transform="translate(5,2)"/>
<path d="M0,0 L1,0 L1,1 L0,1 Z " fill="#FC9C9C" opacity="0.9843137" transform="translate(2,7)"/>
<path d="M0,0 L1,0 L1,1 L0,1 Z " fill="#FF9E9E" opacity="0.16470589" transform="translate(1,7)"/>
<path d="M0,0 L1,0 L1,1 L0,1 Z " fill="#FC9C9C" opacity="0.2509804" transform="translate(7,6)"/>
<path d="M0,0 L1,0 L1,1 L0,1 Z " fill="#FC9C9C" opacity="0.92941177" transform="translate(3,5)"/>
<path d="M0,0 L1,0 L1,1 L0,1 Z " fill="#FC9C9C" opacity="0.07450981" transform="translate(2,5)"/>
<path d="M0,0 L1,0 L1,1 L0,1 Z " fill="#FC9C9C" opacity="0.2509804" transform="translate(6,4)"/>
<path d="M0,0 L1,0 L1,1 L0,1 Z " fill="#FC9B9B" opacity="0.84313726" transform="translate(4,3)"/>
<path d="M0,0 L1,0 L1,1 L0,1 Z " fill="#FC9B9B" opacity="0.019607844" transform="translate(3,3)"/>
<path d="M0,0 L1,0 L1,1 L0,1 Z " fill="#FC9B9B" opacity="0.2901961" transform="translate(4,2)"/>
</svg>
