<?xml version="1.0" encoding="UTF-8"?>
<!-- Generator: visioncortex VTracer 0.6.4 -->
<svg version="1.1" xmlns="http://www.w3.org/2000/svg" width="16" height="16">
<path d="M0,0 L1,0 L1,1 L0,1 Z M1,1 L2,1 L2,2 L1,2 Z M2,2 L4,2 L4,3 L7,3 L7,4 L9,4 L9,6 L7,6 L7,7 L4,7 L4,8 L2,8 Z M1,8 L2,8 L2,9 L1,9 Z M0,9 L1,9 L1,10 L0,10 Z " fill="#010101" transform="translate(2,3)"/>
<path d="M0,0 L1,0 L1,1 L0,1 Z M1,1 L3,1 L3,2 L6,2 L6,3 L8,3 L8,5 L6,5 L6,6 L3,6 L3,7 L1,7 Z M0,7 L1,7 L1,8 L0,8 Z " fill="#8EB3F3" transform="translate(3,4)"/>
<path d="M0,0 L1,0 L1,2 L0,2 Z " fill="#060709" opacity="0.9490196" transform="translate(2,3)"/>
<path d="M0,0 L1,0 L1,1 L0,1 Z " fill="#000000" opacity="0.16470589" transform="translate(12,9)"/>
<path d="M0,0 L1,0 L1,1 L0,1 Z M1,1 L3,1 L3,3 L2,3 L2,5 L1,5 Z " fill="#8EB3F3" transform="translate(3,4)"/>
<path d="M0,0 L1,0 L1,1 L0,1 Z " fill="#090B0F" opacity="0.7137255" transform="translate(6,11)"/>
<path d="M0,0 L1,0 L1,1 L0,1 Z " fill="#000000" opacity="0.32941177" transform="translate(14,8)"/>
<path d="M0,0 L1,0 L1,1 L0,1 Z " fill="#000000" opacity="0.33333334" transform="translate(2,13)"/>
<path d="M0,0 L1,0 L1,1 L0,1 Z M-1,1 L0,1 L0,2 L-1,2 Z " fill="#000000" opacity="0.3372549" transform="translate(2,2)"/>
<path d="M0,0 L1,0 L1,2 L0,2 Z " fill="#0A0C10" opacity="0.9647059" transform="translate(12,7)"/>
<path d="M0,0 L1,0 L1,1 L0,1 Z " fill="#0A0C11" opacity="0.7921569" transform="translate(3,7)"/>
<path d="M0,0 L1,0 L1,1 L0,1 Z " fill="#627CA8" transform="translate(3,11)"/>
<path d="M0,0 L1,0 L1,2 L0,2 Z " fill="#41516E" opacity="0.98039216" transform="translate(3,4)"/>
<path d="M0,0 L1,0 L1,1 L0,1 Z " fill="#000000" opacity="0.3372549" transform="translate(1,12)"/>
<path d="M0,0 L1,0 L1,1 L0,1 Z " fill="#050608" opacity="0.050980393" transform="translate(10,10)"/>
<path d="M0,0 L1,0 L1,1 L0,1 Z " fill="#090A0D" opacity="0.88235295" transform="translate(8,10)"/>
<path d="M0,0 L1,0 L1,1 L0,1 Z " fill="#07080C" opacity="0.5647059" transform="translate(2,10)"/>
<path d="M0,0 L1,0 L1,1 L0,1 Z " fill="#050608" opacity="0.9647059" transform="translate(10,9)"/>
<path d="M0,0 L1,0 L1,2 L0,2 Z " fill="#000000" opacity="0.015686275" transform="translate(15,7)"/>
<path d="M0,0 L1,0 L1,1 L0,1 Z " fill="#090C10" opacity="0.8039216" transform="translate(13,8)"/>
<path d="M0,0 L1,0 L1,1 L0,1 Z " fill="#465877" opacity="0.9882353" transform="translate(11,8)"/>
<path d="M0,0 L1,0 L1,2 L0,2 Z " fill="#80A1DA" transform="translate(10,7)"/>
<path d="M0,0 L1,0 L1,2 L0,2 Z " fill="#5F78A3" transform="translate(4,7)"/>
<path d="M0,0 L1,0 L1,1 L0,1 Z " fill="#000000" opacity="0.16470589" transform="translate(12,6)"/>
<path d="M0,0 L1,0 L1,1 L0,1 Z " fill="#050608" opacity="0.9647059" transform="translate(10,6)"/>
<path d="M0,0 L1,0 L1,1 L0,1 Z " fill="#040404" opacity="0.050980393" transform="translate(10,5)"/>
<path d="M0,0 L1,0 L1,1 L0,1 Z " fill="#090A0D" opacity="0.8862745" transform="translate(8,5)"/>
<path d="M0,0 L1,0 L1,1 L0,1 Z " fill="#06070A" opacity="0.015686275" transform="translate(3,13)"/>
<path d="M0,0 L1,0 L1,1 L0,1 Z " fill="#000000" opacity="0.49411765" transform="translate(1,13)"/>
<path d="M0,0 L1,0 L1,1 L0,1 Z " fill="#000000" opacity="0.101960786" transform="translate(5,12)"/>
<path d="M0,0 L1,0 L1,1 L0,1 Z " fill="#050709" opacity="0.52156866" transform="translate(4,12)"/>
<path d="M0,0 L1,0 L1,1 L0,1 Z " fill="#06070A" opacity="0.9372549" transform="translate(3,12)"/>
<path d="M0,0 L1,0 L1,1 L0,1 Z " fill="#000000" opacity="0.24705882" transform="translate(7,11)"/>
<path d="M0,0 L1,0 L1,1 L0,1 Z " fill="#060709" opacity="0.972549" transform="translate(5,11)"/>
<path d="M0,0 L1,0 L1,1 L0,1 Z " fill="#384760" opacity="0.972549" transform="translate(4,11)"/>
<path d="M0,0 L1,0 L1,1 L0,1 Z " fill="#060709" opacity="0.9490196" transform="translate(2,11)"/>
<path d="M0,0 L1,0 L1,1 L0,1 Z " fill="#060709" opacity="0.019607844" transform="translate(1,11)"/>
<path d="M0,0 L1,0 L1,1 L0,1 Z " fill="#040404" opacity="0.42352942" transform="translate(9,10)"/>
<path d="M0,0 L1,0 L1,1 L0,1 Z " fill="#11161E" opacity="0.9529412" transform="translate(7,10)"/>
<path d="M0,0 L1,0 L1,1 L0,1 Z " fill="#52678D" opacity="0.99607843" transform="translate(6,10)"/>
<path d="M0,0 L1,0 L1,1 L0,1 Z " fill="#87AAE6" transform="translate(5,10)"/>
<path d="M0,0 L1,0 L1,1 L0,1 Z " fill="#41516E" opacity="0.98039216" transform="translate(3,10)"/>
<path d="M0,0 L1,0 L1,1 L0,1 Z " fill="#08090D" opacity="0.6117647" transform="translate(11,9)"/>
<path d="M0,0 L1,0 L1,1 L0,1 Z " fill="#2B3649" opacity="0.95686275" transform="translate(9,9)"/>
<path d="M0,0 L1,0 L1,1 L0,1 Z " fill="#6A86B6" transform="translate(8,9)"/>
<path d="M0,0 L1,0 L1,1 L0,1 Z " fill="#8BAFEE" transform="translate(4,9)"/>
<path d="M0,0 L1,0 L1,1 L0,1 Z " fill="#090B0E" opacity="0.9647059" transform="translate(3,9)"/>
<path d="M0,0 L1,0 L1,1 L0,1 Z " fill="#000000" opacity="0.13725491" transform="translate(2,9)"/>
<path d="M0,0 L1,0 L1,1 L0,1 Z " fill="#0A0C11" opacity="0.7882353" transform="translate(3,8)"/>
<path d="M0,0 L1,0 L1,1 L0,1 Z " fill="#000000" opacity="0.33333334" transform="translate(14,7)"/>
<path d="M0,0 L1,0 L1,1 L0,1 Z " fill="#090C10" opacity="0.80784315" transform="translate(13,7)"/>
<path d="M0,0 L1,0 L1,1 L0,1 Z " fill="#465878" opacity="0.9843137" transform="translate(11,7)"/>
<path d="M0,0 L1,0 L1,1 L0,1 Z " fill="#80A1DB" transform="translate(10,7)"/>
<path d="M0,0 L1,0 L1,1 L0,1 Z " fill="#08090C" opacity="0.61960787" transform="translate(11,6)"/>
<path d="M0,0 L1,0 L1,1 L0,1 Z " fill="#2C364A" opacity="0.95686275" transform="translate(9,6)"/>
<path d="M0,0 L1,0 L1,1 L0,1 Z " fill="#6B87B7" transform="translate(8,6)"/>
<path d="M0,0 L1,0 L1,1 L0,1 Z " fill="#8BAFEE" transform="translate(4,6)"/>
<path d="M0,0 L1,0 L1,1 L0,1 Z " fill="#090B0E" opacity="0.9647059" transform="translate(3,6)"/>
<path d="M0,0 L1,0 L1,1 L0,1 Z " fill="#000000" opacity="0.13725491" transform="translate(2,6)"/>
<path d="M0,0 L1,0 L1,1 L0,1 Z " fill="#040404" opacity="0.42745098" transform="translate(9,5)"/>
<path d="M0,0 L1,0 L1,1 L0,1 Z " fill="#11171F" opacity="0.9529412" transform="translate(7,5)"/>
<path d="M0,0 L1,0 L1,1 L0,1 Z " fill="#53688E" opacity="0.99607843" transform="translate(6,5)"/>
<path d="M0,0 L1,0 L1,1 L0,1 Z " fill="#87AAE6" transform="translate(5,5)"/>
<path d="M0,0 L1,0 L1,1 L0,1 Z " fill="#07080A" opacity="0.56078434" transform="translate(2,5)"/>
<path d="M0,0 L1,0 L1,1 L0,1 Z " fill="#000000" opacity="0.2509804" transform="translate(7,4)"/>
<path d="M0,0 L1,0 L1,1 L0,1 Z " fill="#090C10" opacity="0.7176471" transform="translate(6,4)"/>
<path d="M0,0 L1,0 L1,1 L0,1 Z " fill="#060709" opacity="0.972549" transform="translate(5,4)"/>
<path d="M0,0 L1,0 L1,1 L0,1 Z " fill="#394861" opacity="0.972549" transform="translate(4,4)"/>
<path d="M0,0 L1,0 L1,1 L0,1 Z " fill="#627CA8" transform="translate(3,4)"/>
<path d="M0,0 L1,0 L1,1 L0,1 Z " fill="#000000" opacity="0.019607844" transform="translate(1,4)"/>
<path d="M0,0 L1,0 L1,1 L0,1 Z " fill="#000000" opacity="0.101960786" transform="translate(5,3)"/>
<path d="M0,0 L1,0 L1,1 L0,1 Z " fill="#050709" opacity="0.5254902" transform="translate(4,3)"/>
<path d="M0,0 L1,0 L1,1 L0,1 Z " fill="#06070A" opacity="0.9372549" transform="translate(3,3)"/>
<path d="M0,0 L1,0 L1,1 L0,1 Z " fill="#010101" transform="translate(2,3)"/>
<path d="M0,0 L1,0 L1,1 L0,1 Z " fill="#000000" opacity="0.019607844" transform="translate(3,2)"/>
<path d="M0,0 L1,0 L1,1 L0,1 Z " fill="#000000" opacity="0.49803922" transform="translate(1,2)"/>
</svg>
