<?xml version="1.0" encoding="UTF-8"?>
<!-- Generator: visioncortex VTracer 0.6.4 -->
<svg version="1.1" xmlns="http://www.w3.org/2000/svg" width="16" height="16">
<path d="M0,0 L1,0 L1,1 L2,1 L2,2 L3,2 L3,3 L4,3 L4,4 L7,4 L7,9 L6,9 L6,8 L3,8 L3,5 L2,5 L2,4 L1,4 L1,3 L0,3 L0,2 L-1,2 L-1,1 L0,1 Z M6,2 L7,2 L7,3 L6,3 Z M1,7 L2,7 L2,8 L1,8 Z " fill="#181818" opacity="0.9529412" transform="translate(5,4)"/>
<path d="M0,0 L1,0 L1,1 L2,1 L2,2 L3,2 L3,3 L4,3 L4,4 L7,4 L7,8 L3,8 L3,5 L2,5 L2,4 L1,4 L1,3 L0,3 L0,2 L-1,2 L-1,1 L0,1 Z " fill="#E0E0E0" transform="translate(5,4)"/>
<path d="M0,0 L1,0 L1,1 L0,1 Z M9,0 L10,0 L10,1 L9,1 Z M1,1 L2,1 L2,2 L1,2 Z " fill="#000000" opacity="0.1254902" transform="translate(2,6)"/>
<path d="M0,0 L1,0 L1,2 L0,2 Z " fill="#000000" opacity="0.1764706" transform="translate(6,11)"/>
<path d="M0,0 L2,0 L2,1 L0,1 Z M-1,1 L0,1 L0,2 L-1,2 Z M2,1 L3,1 L3,2 L2,2 Z M3,2 L4,2 L4,3 L3,3 Z M4,3 L5,3 L5,4 L4,4 Z M6,4 L7,4 L7,6 L6,6 Z " fill="#909090" opacity="0.99607843" transform="translate(5,4)"/>
<path d="M0,0 L1,0 L1,1 L0,1 Z M1,1 L2,1 L2,2 L1,2 Z M2,2 L3,2 L3,3 L2,3 Z M3,3 L4,3 L4,4 L3,4 Z " fill="#000000" opacity="0.15686275" transform="translate(6,2)"/>
<path d="M0,0 L1,0 L1,1 L0,1 Z " fill="#000000" opacity="0.30980393" transform="translate(13,13)"/>
<path d="M0,0 L1,0 L1,1 L0,1 Z M1,1 L2,1 L2,2 L1,2 Z M2,2 L3,2 L3,3 L2,3 Z M3,3 L4,3 L4,4 L3,4 Z M5,3 L6,3 L6,4 L5,4 Z " fill="#090909" opacity="0.9372549" transform="translate(6,3)"/>
<path d="M0,0 L3,0 L3,1 L0,1 Z " fill="#434343" opacity="0.95686275" transform="translate(7,11)"/>
<path d="M0,0 L1,0 L1,1 L0,1 Z " fill="#000000" opacity="0.21176471" transform="translate(12,6)"/>
<path d="M0,0 L1,0 L1,1 L0,1 Z M-1,1 L0,1 L0,2 L-1,2 Z " fill="#030303" opacity="0.2627451" transform="translate(4,3)"/>
<path d="M0,0 L1,0 L1,2 L0,2 Z " fill="#0B0B0B" opacity="0.76862746" transform="translate(6,10)"/>
<path d="M0,0 L1,0 L1,1 L0,1 Z " fill="#0E0E0E" opacity="0.8745098" transform="translate(12,9)"/>
<path d="M0,0 L1,0 L1,1 L0,1 Z M1,1 L2,1 L2,2 L1,2 Z " fill="#000000" opacity="0.12941177" transform="translate(4,8)"/>
<path d="M0,0 L1,0 L1,1 L0,1 Z M-1,1 L0,1 L0,2 L-1,2 Z " fill="#ACACAC" transform="translate(5,4)"/>
<path d="M0,0 L1,0 L1,1 L0,1 Z " fill="#000000" opacity="0.1764706" transform="translate(11,13)"/>
<path d="M0,0 L1,0 L1,1 L0,1 Z " fill="#101010" opacity="0.98039216" transform="translate(12,12)"/>
<path d="M0,0 L1,0 L1,1 L0,1 Z " fill="#101010" opacity="0.8392157" transform="translate(9,12)"/>
<path d="M0,0 L1,0 L1,1 L0,1 Z " fill="#000000" opacity="0.21568628" transform="translate(13,11)"/>
<path d="M0,0 L2,0 L2,1 L0,1 Z " fill="#A8A8A8" transform="translate(8,11)"/>
<path d="M0,0 L1,0 L1,1 L0,1 Z " fill="#010101" opacity="0.6784314" transform="translate(5,11)"/>
<path d="M0,0 L1,0 L1,2 L0,2 Z " fill="#B0B0B0" transform="translate(11,8)"/>
<path d="M0,0 L1,0 L1,1 L0,1 Z M1,1 L2,1 L2,2 L1,2 Z " fill="#868686" opacity="0.99215686" transform="translate(6,8)"/>
<path d="M0,0 L1,0 L1,1 L0,1 Z " fill="#505050" opacity="0.9647059" transform="translate(11,7)"/>
<path d="M0,0 L1,0 L1,1 L0,1 Z M1,1 L2,1 L2,2 L1,2 Z " fill="#0A0A0A" opacity="0.91764706" transform="translate(4,7)"/>
<path d="M0,0 L1,0 L1,1 L0,1 Z " fill="#090909" opacity="0.91764706" transform="translate(3,6)"/>
<path d="M0,0 L1,0 L1,1 L0,1 Z " fill="#010101" opacity="0.6901961" transform="translate(11,5)"/>
<path d="M0,0 L1,0 L1,1 L0,1 Z " fill="#000000" opacity="0.38039216" transform="translate(12,13)"/>
<path d="M0,0 L1,0 L1,1 L0,1 Z " fill="#050505" opacity="0.015686275" transform="translate(10,13)"/>
<path d="M0,0 L1,0 L1,1 L0,1 Z " fill="#000000" opacity="0.41568628" transform="translate(13,12)"/>
<path d="M0,0 L1,0 L1,1 L0,1 Z " fill="#050505" opacity="0.98039216" transform="translate(10,12)"/>
<path d="M0,0 L1,0 L1,1 L0,1 Z " fill="#0B0B0B" opacity="0.60784316" transform="translate(8,12)"/>
<path d="M0,0 L1,0 L1,1 L0,1 Z " fill="#000000" opacity="0.3764706" transform="translate(7,12)"/>
<path d="M0,0 L1,0 L1,1 L0,1 Z " fill="#010101" opacity="0.011764706" transform="translate(5,12)"/>
<path d="M0,0 L1,0 L1,1 L0,1 Z " fill="#1F1F1F" opacity="0.94509804" transform="translate(12,11)"/>
<path d="M0,0 L1,0 L1,1 L0,1 Z " fill="#D4D4D4" transform="translate(10,11)"/>
<path d="M0,0 L1,0 L1,1 L0,1 Z " fill="#7A7A7A" transform="translate(8,11)"/>
<path d="M0,0 L1,0 L1,1 L0,1 Z " fill="#000000" transform="translate(6,11)"/>
<path d="M0,0 L1,0 L1,1 L0,1 Z " fill="#010101" opacity="0.003921569" transform="translate(4,11)"/>
<path d="M0,0 L1,0 L1,1 L0,1 Z " fill="#040404" opacity="0.03137255" transform="translate(13,10)"/>
<path d="M0,0 L1,0 L1,1 L0,1 Z " fill="#040404" opacity="0.9843137" transform="translate(12,10)"/>
<path d="M0,0 L1,0 L1,1 L0,1 Z " fill="#D9D9D9" transform="translate(11,10)"/>
<path d="M0,0 L1,0 L1,1 L0,1 Z " fill="#4B4B4B" opacity="0.972549" transform="translate(7,10)"/>
<path d="M0,0 L1,0 L1,1 L0,1 Z " fill="#000000" opacity="0.02745098" transform="translate(5,10)"/>
<path d="M0,0 L1,0 L1,1 L0,1 Z " fill="#090909" opacity="0.92156863" transform="translate(6,9)"/>
<path d="M0,0 L1,0 L1,1 L0,1 Z " fill="#0D0D0D" opacity="0.654902" transform="translate(12,8)"/>
<path d="M0,0 L1,0 L1,1 L0,1 Z " fill="#848484" transform="translate(11,8)"/>
<path d="M0,0 L1,0 L1,1 L0,1 Z " fill="#000000" opacity="0.4117647" transform="translate(12,7)"/>
<path d="M0,0 L1,0 L1,1 L0,1 Z " fill="#505050" opacity="0.972549" transform="translate(10,7)"/>
<path d="M0,0 L1,0 L1,1 L0,1 Z " fill="#858585" opacity="0.99215686" transform="translate(5,7)"/>
<path d="M0,0 L1,0 L1,1 L0,1 Z " fill="#010101" transform="translate(11,6)"/>
<path d="M0,0 L1,0 L1,1 L0,1 Z " fill="#0B0B0B" opacity="0.78039217" transform="translate(10,6)"/>
<path d="M0,0 L1,0 L1,1 L0,1 Z " fill="#838383" opacity="0.99215686" transform="translate(4,6)"/>
<path d="M0,0 L1,0 L1,1 L0,1 Z " fill="#010101" opacity="0.03137255" transform="translate(12,5)"/>
<path d="M0,0 L1,0 L1,1 L0,1 Z " fill="#000000" opacity="0.02745098" transform="translate(10,5)"/>
<path d="M0,0 L1,0 L1,1 L0,1 Z " fill="#090909" opacity="0.9647059" transform="translate(3,5)"/>
<path d="M0,0 L1,0 L1,1 L0,1 Z " fill="#000000" opacity="0.24705882" transform="translate(2,5)"/>
<path d="M0,0 L1,0 L1,1 L0,1 Z " fill="#010101" opacity="0.003921569" transform="translate(11,4)"/>
<path d="M0,0 L1,0 L1,1 L0,1 Z " fill="#0B0B0B" opacity="0.9607843" transform="translate(4,4)"/>
<path d="M0,0 L1,0 L1,1 L0,1 Z " fill="#090909" opacity="0.9647059" transform="translate(5,3)"/>
<path d="M0,0 L1,0 L1,1 L0,1 Z " fill="#000000" opacity="0.2509804" transform="translate(5,2)"/>
</svg>
