<?xml version="1.0" encoding="UTF-8"?>
<!-- Generator: visioncortex VTracer 0.6.4 -->
<svg version="1.1" xmlns="http://www.w3.org/2000/svg" width="16" height="16">
<path d="M0,0 L2,0 L2,1 L0,1 Z M2,1 L3,1 L3,2 L2,2 Z M3,2 L4,2 L4,3 L3,3 Z " fill="#E0E0E0" opacity="0.99607843" transform="translate(10,3)"/>
<path d="M0,0 L1,0 L1,2 L2,2 L2,3 L1,3 L1,4 L-1,4 L-1,2 L0,2 Z " fill="#E0E0E0" opacity="0.99607843" transform="translate(4,6)"/>
<path d="M0,0 L1,0 L1,5 L0,5 Z M-1,5 L0,5 L0,6 L-1,6 Z M-2,6 L-1,6 L-1,7 L-2,7 Z " fill="#E0E0E0" opacity="0.99607843" transform="translate(13,6)"/>
<path d="M0,0 L1,0 L1,1 L0,1 Z M-1,1 L0,1 L0,2 L-1,2 Z " fill="#E1E1E1" opacity="0.8745098" transform="translate(6,4)"/>
<path d="M0,0 L1,0 L1,1 L0,1 Z M-1,1 L0,1 L0,2 L-1,2 Z " fill="#E0E0E0" opacity="0.8901961" transform="translate(12,10)"/>
<path d="M0,0 L1,0 L1,1 L0,1 Z " fill="#E0E0E0" opacity="0.99607843" transform="translate(9,3)"/>
<path d="M0,0 L1,0 L1,1 L0,1 Z " fill="#E0E0E0" opacity="0.89411765" transform="translate(14,8)"/>
<path d="M0,0 L1,0 L1,1 L0,1 Z M-1,1 L0,1 L0,2 L-1,2 Z M-2,2 L-1,2 L-1,3 L-2,3 Z " fill="#E0E0E0" opacity="0.99607843" transform="translate(6,3)"/>
<path d="M0,0 L2,0 L2,1 L0,1 Z " fill="#E0E0E0" opacity="0.99607843" transform="translate(9,12)"/>
<path d="M0,0 L1,0 L1,1 L0,1 Z " fill="#E0E0E0" opacity="0.99607843" transform="translate(2,8)"/>
<path d="M0,0 L1,0 L1,1 L0,1 Z " fill="#E1E1E1" opacity="0.09803922" transform="translate(12,7)"/>
<path d="M0,0 L1,0 L1,1 L0,1 Z " fill="#E0E0E0" opacity="0.09411765" transform="translate(8,4)"/>
<path d="M0,0 L1,0 L1,1 L0,1 Z " fill="#E1E1E1" opacity="0.74509805" transform="translate(4,4)"/>
<path d="M0,0 L1,0 L1,1 L0,1 Z " fill="#E0E0E0" opacity="0.9019608" transform="translate(8,2)"/>
<path d="M0,0 L1,0 L1,1 L0,1 Z M-1,1 L0,1 L0,2 L-1,2 Z " fill="#E1E1E1" opacity="0.72156864" transform="translate(13,11)"/>
<path d="M0,0 L1,0 L1,1 L0,1 Z " fill="#E4E4E4" opacity="0.015686275" transform="translate(6,7)"/>
<path d="M0,0 L1,0 L1,1 L0,1 Z M1,1 L2,1 L2,2 L1,2 Z " fill="#E0E0E0" opacity="0.88235295" transform="translate(11,4)"/>
<path d="M0,0 L1,0 L1,1 L0,1 Z " fill="#E0E0E0" opacity="0.3529412" transform="translate(10,11)"/>
<path d="M0,0 L1,0 L1,1 L0,1 Z " fill="#E0E0E0" opacity="0.38039216" transform="translate(4,11)"/>
<path d="M0,0 L1,0 L1,1 L0,1 Z " fill="#E0E0E0" opacity="0.9607843" transform="translate(4,10)"/>
<path d="M0,0 L1,0 L1,1 L0,1 Z " fill="#E1E1E1" opacity="0.9019608" transform="translate(3,7)"/>
<path d="M0,0 L2,0 L2,1 L0,1 Z " fill="#E1E1E1" opacity="0.015686275" transform="translate(1,7)"/>
<path d="M0,0 L1,0 L1,1 L0,1 Z " fill="#E0E0E0" opacity="0.69803923" transform="translate(14,6)"/>
<path d="M0,0 L1,0 L1,1 L0,1 Z " fill="#E0E0E0" opacity="0.7294118" transform="translate(13,4)"/>
<path d="M0,0 L2,0 L2,1 L0,1 Z " fill="#E0E0E0" opacity="0.99607843" transform="translate(7,3)"/>
<path d="M0,0 L1,0 L1,1 L0,1 Z " fill="#E1E1E1" opacity="0.003921569" transform="translate(12,2)"/>
<path d="M0,0 L1,0 L1,1 L0,1 Z " fill="#E1E1E1" opacity="0.39215687" transform="translate(6,2)"/>
<path d="M0,0 L1,0 L1,1 L0,1 Z " fill="#E0E0E0" opacity="0.3764706" transform="translate(11,13)"/>
<path d="M0,0 L1,0 L1,1 L0,1 Z " fill="#E1E1E1" opacity="0.69411767" transform="translate(10,13)"/>
<path d="M0,0 L1,0 L1,1 L0,1 Z " fill="#E0E0E0" opacity="0.8980392" transform="translate(9,13)"/>
<path d="M0,0 L1,0 L1,1 L0,1 Z " fill="#E9E9E9" opacity="0.09019608" transform="translate(13,12)"/>
<path d="M0,0 L1,0 L1,1 L0,1 Z " fill="#E2E2E2" opacity="0.101960786" transform="translate(9,11)"/>
<path d="M0,0 L1,0 L1,1 L0,1 Z " fill="#E0E0E0" opacity="0.3529412" transform="translate(3,11)"/>
<path d="M0,0 L1,0 L1,1 L0,1 Z " fill="#E0E0E0" opacity="0.3764706" transform="translate(14,10)"/>
<path d="M0,0 L1,0 L1,1 L0,1 Z " fill="#E0E0E0" opacity="0.07450981" transform="translate(11,10)"/>
<path d="M0,0 L1,0 L1,1 L0,1 Z " fill="#E2E2E2" opacity="0.16862746" transform="translate(5,10)"/>
<path d="M0,0 L1,0 L1,1 L0,1 Z " fill="#E0E0E0" opacity="0.9529412" transform="translate(3,10)"/>
<path d="M0,0 L1,0 L1,1 L0,1 Z " fill="#DFDFDF" opacity="0.15294118" transform="translate(2,10)"/>
<path d="M0,0 L1,0 L1,1 L0,1 Z " fill="#E1E1E1" opacity="0.6901961" transform="translate(14,9)"/>
<path d="M0,0 L1,0 L1,1 L0,1 Z " fill="#E0E0E0" opacity="0.3529412" transform="translate(12,9)"/>
<path d="M0,0 L1,0 L1,1 L0,1 Z " fill="#E1E1E1" opacity="0.043137256" transform="translate(6,9)"/>
<path d="M0,0 L1,0 L1,1 L0,1 Z " fill="#E0E0E0" opacity="0.8352941" transform="translate(5,9)"/>
<path d="M0,0 L1,0 L1,1 L0,1 Z " fill="#E1E1E1" opacity="0.8156863" transform="translate(2,9)"/>
<path d="M0,0 L1,0 L1,1 L0,1 Z " fill="#E1E1E1" opacity="0.03529412" transform="translate(1,9)"/>
<path d="M0,0 L1,0 L1,1 L0,1 Z " fill="#E2E2E2" opacity="0.101960786" transform="translate(12,8)"/>
<path d="M0,0 L1,0 L1,1 L0,1 Z " fill="#E1E1E1" opacity="0.627451" transform="translate(6,8)"/>
<path d="M0,0 L1,0 L1,1 L0,1 Z " fill="#E1E1E1" opacity="0.6" transform="translate(1,8)"/>
<path d="M0,0 L1,0 L1,1 L0,1 Z " fill="#E0E0E0" opacity="0.8980392" transform="translate(14,7)"/>
<path d="M0,0 L1,0 L1,1 L0,1 Z " fill="#E1E1E1" opacity="0.003921569" transform="translate(7,7)"/>
<path d="M0,0 L1,0 L1,1 L0,1 Z " fill="#E4E4E4" opacity="0.10980392" transform="translate(5,7)"/>
<path d="M0,0 L1,0 L1,1 L0,1 Z " fill="#E0E0E0" opacity="0.34509805" transform="translate(12,6)"/>
<path d="M0,0 L1,0 L1,1 L0,1 Z " fill="#DFDFDF" opacity="0.3372549" transform="translate(5,6)"/>
<path d="M0,0 L1,0 L1,1 L0,1 Z " fill="#E0E0E0" opacity="0.70980394" transform="translate(3,6)"/>
<path d="M0,0 L1,0 L1,1 L0,1 Z " fill="#E0E0E0" opacity="0.38431373" transform="translate(14,5)"/>
<path d="M0,0 L1,0 L1,1 L0,1 Z " fill="#E0E0E0" opacity="0.06666667" transform="translate(11,5)"/>
<path d="M0,0 L1,0 L1,1 L0,1 Z " fill="#E1E1E1" opacity="0.05882353" transform="translate(6,5)"/>
<path d="M0,0 L1,0 L1,1 L0,1 Z " fill="#DFDFDF" opacity="0.4" transform="translate(3,5)"/>
<path d="M0,0 L1,0 L1,1 L0,1 Z " fill="#DFDFDF" opacity="0.34117648" transform="translate(10,4)"/>
<path d="M0,0 L1,0 L1,1 L0,1 Z " fill="#E0E0E0" opacity="0.09411765" transform="translate(9,4)"/>
<path d="M0,0 L1,0 L1,1 L0,1 Z " fill="#DFDFDF" opacity="0.3372549" transform="translate(7,4)"/>
<path d="M0,0 L1,0 L1,1 L0,1 Z " fill="#E1E1E1" opacity="0.003921569" transform="translate(3,4)"/>
<path d="M0,0 L1,0 L1,1 L0,1 Z " fill="#E1E1E1" opacity="0.09803922" transform="translate(13,3)"/>
<path d="M0,0 L1,0 L1,1 L0,1 Z " fill="#E0E0E0" opacity="0.7372549" transform="translate(12,3)"/>
<path d="M0,0 L1,0 L1,1 L0,1 Z " fill="#E0E0E0" opacity="0.7411765" transform="translate(5,3)"/>
<path d="M0,0 L1,0 L1,1 L0,1 Z " fill="#E2E2E2" opacity="0.101960786" transform="translate(4,3)"/>
<path d="M0,0 L1,0 L1,1 L0,1 Z " fill="#E1E1E1" opacity="0.39215687" transform="translate(11,2)"/>
<path d="M0,0 L1,0 L1,1 L0,1 Z " fill="#E0E0E0" opacity="0.7058824" transform="translate(10,2)"/>
<path d="M0,0 L1,0 L1,1 L0,1 Z " fill="#E0E0E0" opacity="0.9019608" transform="translate(9,2)"/>
<path d="M0,0 L1,0 L1,1 L0,1 Z " fill="#E0E0E0" opacity="0.7058824" transform="translate(7,2)"/>
<path d="M0,0 L1,0 L1,1 L0,1 Z " fill="#E1E1E1" opacity="0.003921569" transform="translate(5,2)"/>
</svg>
